<?xml version="1.0" encoding="UTF-8"?>
<svg id="Layer_1" xmlns="http://www.w3.org/2000/svg" version="1.1" viewBox="0 0 90 34.4">
  <!-- Generator: Adobe Illustrator 29.0.1, SVG Export Plug-In . SVG Version: 2.1.0 Build 192)  -->
  <defs>
    <style>
      .st0 {
        fill: #fff;
      }
    </style>
  </defs>
  <path class="st0" d="M21,17c2.6-1.6,4.5-3.8,4.5-7.8S20.9,0,15.3,0H0v34.3h15.8c5.4,0,10.5-3.6,10.5-9.3s-2.3-6.7-5.3-8ZM8.5,7.1h4.8c2.2,0,3.4,1.7,3.4,3.6s-1.2,3.5-3.4,3.5h-4.8v-7.1ZM14.1,27.1h-5.6v-6.6h5.6c1.8,0,3.4,1.5,3.4,3.3s-1.2,3.3-3.4,3.3Z"/>
  <path class="st0" d="M79.1,0h-15.8v34.2h8.5v-12.6h7.4c6,0,10.8-4.8,10.8-10.8S85.2,0,79.1,0ZM77.8,14.2h-5.9v-7.1h5.9c1.9,0,3.4,1.7,3.4,3.6s-1.5,3.5-3.4,3.5Z"/>
  <polygon class="st0" points="49.9 13.9 38.1 13.9 38.1 0 29.6 0 29.6 34.3 38.1 34.3 38.1 21.7 49.9 21.7 49.9 34.3 58.4 34.3 58.4 0 49.9 0 49.9 13.9"/>
</svg>