<?xml version="1.0" encoding="UTF-8"?>
<svg id="Layer_1" xmlns="http://www.w3.org/2000/svg" xmlns:svg="http://www.w3.org/2000/svg" version="1.1" viewBox="0 0 340.3 379.7">
  <!-- Generator: Adobe Illustrator 29.0.1, SVG Export Plug-In . SVG Version: 2.1.0 Build 192)  -->
  <defs>
    <style>
      .st0 {
        fill: #fff;
      }
    </style>
  </defs>
  <path class="st0" d="M33.6,67.6c7.7,0,12.9-1.5,15.5-2.8l-2.4-13.3c-3.5,1.6-6.6,2.5-11,2.5-11.3,0-19.1-6.9-19.1-20s9.8-20.1,19.1-20.1,8.3,1.2,11.1,2.4l2.4-13.3c-2.6-1.4-6.5-2.8-14.1-2.8C15.6,0,0,11.8,0,34.1s12.3,33.4,33.6,33.4Z"/>
  <path class="st0" d="M70.2,37.4c0-4.1,2.6-8.4,7.7-8.4s7.5,4.3,7.5,10.5v26.1h14.5v-28.1c0-14.4-6.2-20.9-15.4-20.9s-11.3,2.6-14.2,6.8h-.2V.2l-14.5,5v60.3h14.5v-28.2Z"/>
  <path class="st0" d="M133.1,67.6c6.4,0,12.7-1.1,18.2-3.8l-2.2-11.3c-3.7,2.2-9.1,3.5-13.9,3.5-7.8,0-12.9-3.3-13.4-9.4h31.5c.2-1.1.3-3.5.3-5,0-14.1-6.9-25.4-22.2-25.4s-24.8,9.9-24.8,25.3,9.2,26.2,26.5,26.2ZM130.8,26.5c6.7,0,8.4,6.2,8.4,9.8h-17.5c.4-4.7,3.2-9.8,9.1-9.8Z"/>
  <polygon class="st0" points="188.3 65.6 204.3 18.1 188.3 18.1 179.6 51.7 179.3 51.7 170.6 18.1 154.7 18.1 170.7 65.6 188.3 65.6"/>
  <path class="st0" d="M208.4,33.7v31.9h14.4v-22.3c0-1.3,0-2.3.3-3.3.9-4.7,4.3-8.7,9.9-9.2,1.9-.2,4.5.1,5.8.4v-13.9c-1.4-.3-2.6-.4-4.8-.3-4.7.3-9.3,2.9-11.7,9.9h-.4l-.4-8.8h-13.6c.3,4.1.5,8.6.5,15.6h0Z"/>
  <path class="st0" d="M265.1,67.6c15.2,0,24.6-10.2,24.6-25.8s-9.4-25.8-24.6-25.8-24.6,10.2-24.6,25.8,9.4,25.8,24.6,25.8ZM265.1,27.4c6.9,0,9.6,6.7,9.6,14.5s-2.7,14.4-9.6,14.4-9.6-6.7-9.6-14.4,2.6-14.5,9.6-14.5Z"/>
  <path class="st0" d="M324.5,16.5c-7.8,0-12.8,5.1-14.7,8.2h-.3l-.3-6.6h-13.6c.3,4.2.5,9.2.5,15.1v32.3h14.5v-27.4c0-1.4.1-2.7.5-3.7.9-2.7,3.4-5.5,7.4-5.5s7.3,4.2,7.3,10.3v26.3h14.5v-28.5c0-14-6.2-20.5-15.8-20.5Z"/>
  <polygon class="st0" points=".5 78.2 .5 191.4 170.4 248 340.3 191.4 340.3 78.2 170.4 134.8 .5 78.2"/>
  <polygon class="st0" points="170.4 266.4 .5 209.8 .5 323.1 .6 323 170.4 379.7 340.3 323 340.3 209.8 170.4 266.4 170.4 266.4"/>
</svg>