<?xml version="1.0" encoding="UTF-8"?>
<svg id="hm-logo-lockup" xmlns="http://www.w3.org/2000/svg" version="1.1" viewBox="0 0 199 40">
  <!-- Generator: Adobe Illustrator 29.0.1, SVG Export Plug-In . SVG Version: 2.1.0 Build 192)  -->
  <defs>
    <style>
      .st0 {
        fill: #fff;
      }
    </style>
  </defs>
  <path class="st0" d="M184.1,15.9c-1.6,0-2.9.6-4,1.7-1,1.1-1.6,2.7-1.6,4.9,0,4.1,2.3,6.7,6,6.7s3.4-.6,4.7-1.7l-1.1-1.6c-1,.8-2.1,1.2-3.3,1.2s-2.2-.5-2.8-1.3c-.4-.6-.6-1.5-.6-2.4v-.2h8v-.5c0-2.8-.6-4.4-1.6-5.4s-2.2-1.4-3.7-1.4ZM181.6,21.3c0-2.2.9-3.4,2.5-3.4s2.4,1.3,2.4,3.4h-4.9Z"/>
  <path class="st0" d="M78.7,15.9c-1.7,0-3,.6-4,1.7-1,1.1-1.6,2.7-1.6,4.9,0,4.1,2.3,6.7,6,6.7s3.4-.6,4.7-1.7l-1.1-1.6c-1,.8-2.1,1.2-3.3,1.2s-2.2-.5-2.8-1.3c-.4-.6-.5-1.5-.5-2.4v-.2h7.8v-.5c0-2.8-.6-4.4-1.6-5.4s-2.2-1.4-3.6-1.4ZM76,21.3c0-2.2,1-3.4,2.5-3.4s2.5,1.3,2.5,3.4h-5Z"/>
  <path class="st0" d="M88.6,17.9v-.2c0-.8-.2-1.2-.5-1.7l-2.6.7c.3.8.4,1.7.4,3.2v9.1h2.8v-8.5c0-.7.3-1,.8-1.4.5-.5,1.1-.6,1.7-.6s.5,0,.8.2l1-2.6c-.3,0-.6-.2-1.1-.2-1.4,0-2.4.8-3.3,2Z"/>
  <path class="st0" d="M107.4,15.9c-1.4,0-2.9.7-4,1.9-.6-1.2-1.7-1.9-3.1-1.9s-2.6.7-3.5,1.6c0-.6-.3-1.2-.5-1.6l-2.5.6c.4.8.5,1.3.5,3.1v9.2h2.7v-9.4c1.1-.9,2-1.3,2.8-1.3s1.5.6,1.5,2v8.7h2.7v-9.2c1.1-1.1,2.1-1.6,2.9-1.6s1.4.5,1.4,1.8v8.9h2.5v-9.1c0-1.4-.3-2.3-1-2.9-.5-.5-1.5-.8-2.4-.8Z"/>
  <path class="st0" d="M197.5,15.9c-1.4,0-2.5.8-3.3,2v-.2c0-.8-.2-1.2-.5-1.7l-2.5.7c.3.8.4,1.7.4,3.2v9.1h2.8v-8.5c0-.7.3-1,.8-1.4.5-.5,1.1-.6,1.7-.6s.5,0,.8.2l.9-2.6h0c-.3,0-.6-.2-1.1-.2Z"/>
  <path class="st0" d="M19.9.4C9.1.4.4,9.2.4,20s8.8,19.6,19.6,19.6,19.6-8.8,19.6-19.6S30.7.4,19.9.4ZM30.7,30.2s-4.2-1.5-10.8-1.5-10.8,1.5-10.8,1.5V9.8h.3s1.8,18,10.5,18,10.5-18,10.5-18h.3v20.4Z"/>
  <polygon class="st0" points="68 18.6 61.5 18.6 61.5 11.6 58.7 11.6 58.7 29 61.5 29 61.5 20.9 68 20.9 68 29 70.8 28.9 70.8 11.6 68 11.6 68 18.6"/>
  <polygon class="st0" points="160.6 28.8 163.4 28.8 163.4 15.9 160.6 16.3 160.6 28.8"/>
  <path class="st0" d="M176.2,27.1c-.2-.3-.3-.8-.3-2v-11c0-1.6,0-2.8-.2-3.6l-2.8.6c.2,1,.3,1.9.3,3.7v11c0,1.4.3,2.1.6,2.6.4.6,1.2.9,2.1.9.6,0,1.1-.2,1.7-.4l-.5-1.6c-.4.1-.7,0-.9-.2Z"/>
  <path class="st0" d="M162,10.7c-1,0-1.9.8-1.9,1.8s.9,1.8,1.8,1.8,2-.8,2-1.8-.8-1.8-1.9-1.8Z"/>
  <path class="st0" d="M170.4,27.3c-.5,0-.9-.3-.9-1.2v-12c0-1.6,0-2.8-.2-3.6l-2.8.6c.2,1,.3,1.9.3,3.7v11.5c0,1.9,1.1,3,2.7,3,.7,0,1.2-.2,1.7-.4l-.5-1.6h-.3Z"/>
  <path class="st0" d="M133.1,16c-1.4,0-2.5.5-4,1.7,0-.6-.2-1.2-.5-1.7l-2.5.7c.4.9.4,1.5.4,3v9.4h2.7v-9.2c.9-.9,2.1-1.5,3-1.5s1.5.5,1.5,2.3v8.4h2.9v-9.6c0-2.4-1.4-3.5-3.5-3.5Z"/>
  <path class="st0" d="M123.1,25.1v-4.2c0,0,0-.8,0-.8,0-1.3,0-1.7-.2-2.2-.5-1.4-1.9-2.1-3.9-2.1s-2.3.2-3.5.7c-.7.3-1.4.6-2.1,1l1.2,1.9c.5-.4.9-.6,1.6-.9.9-.4,1.7-.6,2.4-.6s1.2.2,1.5.6.4.8.4,1.7v.9h-.9c-4.3,0-6.6,1.5-6.6,4.5s.3,2.1,1,2.7c.8.7,1.7,1,3.3,1s2-.3,2.8-.8c.3-.2.4-.4.8-.8.3.8,1,1.4,1.8,1.7l1.5-1.7h0c-.9-.6-1.2-1.1-1.2-2.6ZM120.4,25.9c-.5.9-1.5,1.4-2.5,1.4s-1.9-.7-1.9-2,.2-1.3.7-1.7c.5-.5,1.5-.8,3.2-.8.2.1.4.1.6.1v3Z"/>
  <polygon class="st0" points="152.4 11.5 148.9 24.3 145.4 11.6 141.4 11.6 139.7 29 142.3 29 143.5 14.4 147.6 29 149.7 29 153.8 14.7 155 29 157.8 29 157.8 28.9 156.3 11.5 152.4 11.5"/>
</svg>