<?xml version="1.0" encoding="UTF-8"?>
<svg id="svg8" xmlns="http://www.w3.org/2000/svg" xmlns:svg="http://www.w3.org/2000/svg" xmlns:sodipodi="http://sodipodi.sourceforge.net/DTD/sodipodi-0.dtd" xmlns:rdf="http://www.w3.org/1999/02/22-rdf-syntax-ns#" xmlns:inkscape="http://www.inkscape.org/namespaces/inkscape" xmlns:dc="http://purl.org/dc/elements/1.1/" xmlns:cc="http://creativecommons.org/ns#" version="1.1" viewBox="0 0 424.1 94.2">
  <!-- Generator: Adobe Illustrator 29.0.1, SVG Export Plug-In . SVG Version: 2.1.0 Build 192)  -->
  <defs>
    <style>
      .st0 {
        fill: #fff;
      }
    </style>
  </defs>
  <sodipodi:namedview id="base" bordercolor="#666666" borderopacity="1.0" fit-margin-bottom="0" fit-margin-left="0" fit-margin-right="0" fit-margin-top="0" inkscape:current-layer="layer1" inkscape:cx="212.072" inkscape:cy="62.204932" inkscape:document-units="mm" inkscape:pageopacity="0.0" inkscape:pageshadow="2" inkscape:window-height="744" inkscape:window-maximized="1" inkscape:window-width="1280" inkscape:window-x="-4" inkscape:window-y="-4" inkscape:zoom="1.8908673" pagecolor="#ffffff" showgrid="false" units="px"/>
  <g>
    <polygon class="st0" points="175.6 36.5 168 36.5 158.4 79.8 145.8 36.8 145.7 36.5 138.1 36.5 125.9 79.7 116.3 36.8 116.3 36.5 108.3 36.5 121.1 92.6 121.2 93 129.7 93 141.8 49.3 154.2 92.6 154.3 93 162.5 93 175.5 36.8 175.6 36.5"/>
    <path class="st0" d="M381.9,83v-46.8h-7.4v19.7c-1.1-1-2.3-1.8-3.7-2.5-2.5-1.2-5.3-1.9-8.1-1.9s-5.6.6-7.9,1.9c-3.1,1.7-5.5,4.4-7.1,8.2-1.4,3.2-2.1,7-2.1,11,0,5.5,1.4,10.5,3.8,14.3,1.4,2.2,3.2,3.9,5.4,5.1,2.3,1.3,5,2,7.9,2s5.6-.7,8-2c1.4-.7,2.7-1.7,3.9-2.9l.2,3.7h7.6l-.2-3.1c-.1-2.1-.3-4.5-.3-6.8ZM371.7,82.6c-.9,1.4-2,2.5-3.5,3.2-1.5.8-3.4,1.2-5.6,1.2s-3.3-.4-4.6-1.3c-.8-.6-1.6-1.4-2.3-2.4-.9-1.4-1.6-3.2-2-5.3-.4-1.8-.6-3.8-.6-5.9,0-3.8.8-7.1,2.3-9.5.8-1.3,1.9-2.3,3.1-3,1.3-.8,2.9-1.2,4.7-1.2s3.6.4,5,1.1c1.9,1,3.4,2.6,4.4,4.9.9,2.1,1.4,4.7,1.4,7.5,0,4.5-.9,8.2-2.5,10.7Z"/>
    <path class="st0" d="M200.8,53.3c-2.5-1.2-5.4-1.9-8.6-1.9s-6,.6-8.6,1.9c-3.4,1.7-6.3,4.5-8.1,8.1-1.7,3.3-2.6,7.2-2.6,11.2s1.6,10.7,4.6,14.5c1.7,2.1,3.7,3.8,6.1,4.9,2.5,1.2,5.4,1.9,8.6,1.9s6-.6,8.6-1.9c3.4-1.7,6.3-4.5,8.1-8.1,1.7-3.3,2.6-7.2,2.6-11.2s-1.6-10.7-4.6-14.5c-1.7-2.1-3.7-3.8-6.1-4.9ZM200.9,82.4c-1,1.4-2.2,2.6-3.5,3.3-1.5.9-3.3,1.3-5.2,1.3s-3.7-.4-5.2-1.3c-2-1.1-3.6-3.1-4.7-5.6-1-2.2-1.5-4.9-1.5-7.5,0-3.6,1-7.1,2.7-9.7,1-1.4,2.1-2.6,3.5-3.3,1.5-.9,3.2-1.3,5.2-1.3s3.7.4,5.2,1.3c2,1.1,3.6,3.1,4.7,5.6,1,2.2,1.5,4.9,1.5,7.5s-1,7.1-2.7,9.7Z"/>
    <path class="st0" d="M242.7,53.5c-2.6-1.2-5.4-1.9-8.6-1.9s-6,.6-8.6,1.9c-3.4,1.7-6.3,4.5-8.1,8.1-1.7,3.3-2.6,7.2-2.6,11.2s1.6,10.7,4.6,14.5c1.7,2.1,3.7,3.8,6.1,4.9,2.5,1.2,5.4,1.9,8.6,1.9s6-.6,8.6-1.9c3.5-1.7,6.3-4.5,8.1-8.2,1.7-3.3,2.6-7.2,2.6-11.2,0-5.5-1.6-10.7-4.6-14.5-1.7-2.1-3.7-3.8-6.1-4.9ZM242.8,82.6c-1,1.4-2.2,2.6-3.5,3.3-1.5.9-3.3,1.3-5.2,1.3s-3.7-.4-5.2-1.3c-2-1.1-3.6-3-4.7-5.6-1-2.2-1.5-4.9-1.5-7.5s1-7.1,2.7-9.7c1-1.5,2.2-2.6,3.5-3.3,1.5-.9,3.2-1.3,5.2-1.3s3.7.4,5.2,1.3c2,1.1,3.6,3.1,4.7,5.6,1,2.2,1.5,4.9,1.5,7.4s-1,7.1-2.7,9.7Z"/>
    <path class="st0" d="M293.1,83.2v-46.8h-7.4v19.7c-1.1-1-2.3-1.8-3.7-2.5-2.5-1.2-5.3-1.9-8.1-1.9s-5.6.6-7.9,1.9c-3.1,1.7-5.5,4.5-7.1,8.2-1.4,3.2-2.1,7-2.1,11.1,0,5.5,1.4,10.5,3.8,14.3,1.4,2.2,3.2,3.9,5.3,5.1,2.3,1.3,5,2,8,2s5.6-.7,8.1-2c1.4-.7,2.7-1.7,3.9-2.9l.2,3.7h7.6l-.2-2.6c-.1-2.2-.3-4.8-.3-7.2ZM283,82.7c-.9,1.4-2.1,2.5-3.5,3.2-1.5.8-3.4,1.2-5.6,1.2s-3.3-.4-4.6-1.3c-.9-.6-1.6-1.4-2.3-2.4-.9-1.4-1.6-3.2-2-5.3-.4-1.8-.6-3.8-.6-5.9,0-3.7.8-7.1,2.3-9.5.8-1.3,1.9-2.3,3-3,1.4-.8,2.9-1.2,4.7-1.2s3.6.4,5,1.1c1.9,1,3.4,2.6,4.4,4.9.9,2.1,1.4,4.7,1.4,7.5,0,4.5-.9,8.2-2.5,10.7Z"/>
    <path class="st0" d="M322.7,70.4c-3.2-1.1-6-1.8-8.5-2.4-1.6-.4-3-.8-4.2-1.1-1.5-.5-2.5-1-3.1-1.5-.3-.3-.5-.5-.6-.9-.2-.4-.2-.8-.2-1.3,0-.8.2-1.5.5-2.1.5-.8,1.4-1.4,2.6-1.9,1.1-.4,2.6-.7,4.1-.7,2.3,0,4.2.4,5.6,1.2.7.4,1.2.9,1.6,1.5.4.7.7,1.4.8,2.3v1.3h7.9v-1.5c-.3-2.1-.8-4-1.7-5.5-1.3-2.2-3.2-3.8-5.8-4.8-2.2-.9-4.9-1.3-8-1.3s-6.9.4-10.3,2.5c-1.6,1-2.9,2.2-3.7,3.7-1,1.6-1.5,3.5-1.5,5.6s.4,3.6,1.2,5c.6,1,1.4,1.9,2.3,2.6,1.2.9,2.7,1.7,4.6,2.4,1.6.6,3.4,1,5.1,1.4l1.1.2c2.6.6,5.1,1.1,6.9,1.9,1,.5,1.7,1,2.2,1.6.5.7.7,1.4.7,2.4,0,1-.2,1.9-.7,2.7-.6,1.1-1.7,1.9-3.1,2.5-1.4.6-3.1.9-4.8.9-2.6,0-4.8-.5-6.3-1.3-.8-.5-1.5-1.1-1.9-1.8-.5-.8-.8-1.7-.9-2.8v-1.3h-7.8v1.4c0,2.2.6,4.2,1.6,5.9,1.3,2.3,3.5,4.1,6.3,5.3,2.4,1,5.1,1.5,8,1.5,4.5,0,8.8-1.1,11.9-3.2,1.7-1.1,3.1-2.6,4.1-4.3,1-1.8,1.6-3.9,1.6-6.2s-.7-4.4-2-6.2c-1.3-1.8-3.2-3.1-5.4-3.9Z"/>
    <rect class="st0" x="333.6" y="36.5" width="8.2" height="8.4"/>
    <rect class="st0" x="334" y="52.9" width="7.4" height="40.3"/>
    <path class="st0" d="M424.1,73.7c0-6.6-1.4-11.8-4.2-15.6-1.6-2.1-3.5-3.8-5.9-4.9-2.5-1.2-5.4-1.7-8.7-1.7s-5.7.6-8.1,1.8c-3.3,1.7-6,4.4-7.8,8-1.7,3.3-2.5,7.2-2.5,11.3s1.5,10.8,4.4,14.5c1.6,2.1,3.5,3.7,5.7,4.8,2.4,1.2,5.1,1.8,8.1,1.8,4.9,0,9-1.2,12-3.4,3.1-2.3,5.3-5.9,6.6-10.6v-.5c.1,0-7.6,0-7.6,0-.5,2.1-1.7,4.1-3.4,5.5-1.8,1.4-3.9,2.2-6.2,2.2s-3.8-.4-5.4-1c-2.1-.9-3.7-2.5-4.8-4.7-.9-1.7-1.4-3.7-1.6-6.1h29.4v-1.4ZM395.1,68.2c.5-2.5,1.5-4.8,2.9-6.5.9-1.1,2-1.9,3.1-2.4,1.3-.6,2.7-.9,4.3-.9s3.3.3,4.6.8c1.9.8,3.4,2.1,4.4,3.9.8,1.4,1.4,3.1,1.7,5h-21.1Z"/>
    <path class="st0" d="M95.7,13.9c-5.1-4.3-22.3,11-29.3,17.8,1.9,13.1-.6,23.5-7.1,33.5-.7,1.1-1.4,2-2.2,2.9,7,.9,17.5-5.5,30.2-23.4,7.1-10,14.6-25.7,8.5-30.9Z"/>
    <path class="st0" d="M27.1,49.8c5.1,3.9,9,7.5,9.9,8.3,6.3,6.2,10.2,11.5,12.6,16,2.5-1.3,5.1-3.2,7.5-5.9-1.8-.2-3.4-.9-4.7-2.1-3.2-2.7-5.9-12.5,11.1-31.5.4-.4,1.4-1.5,2.9-2.9h0C63.9,16.7,54-.4,46.1,0c-8.2.4-18.1,29.9-19,49.8-8.9-7-21.2-15.1-25.1-11.4-6.1,5.7,2.8,21.8,10.8,31.8,18.1,22.6,31.4,26.3,37.8,20.2,2.1-2,3.8-7.3-1-16.3,0,0-.2,0-.3.1-4.1,2-7.9,2.3-10.2,1.8-10.7-2.1-12.7-13.9-12.1-25.1,0-.4,0-.8,0-1.1Z"/>
  </g>
</svg>