<svg width="22" height="29" viewBox="0 0 22 29" fill="none" xmlns="http://www.w3.org/2000/svg">
<g clip-path="url(#clip0_1108_461)">
<path d="M0.0391397 14.1348C0.0391397 12.8222 -0.0588123 11.5096 0.0391397 10.2167C0.16806 8.37576 0.778994 6.60115 1.81057 5.07097C2.84215 3.5408 4.25807 2.30892 5.91626 1.49896C7.42048 0.691623 9.0929 0.247804 10.7995 0.203091C12.5061 0.158379 14.1995 0.514002 15.7439 1.24147C17.2883 1.96894 18.6409 3.04804 19.6933 4.39229C20.7457 5.73655 21.4686 7.30858 21.8041 8.98247C21.9521 9.72453 22.0308 10.4788 22.0392 11.2354C22.0392 13.1944 22.0392 15.1535 22.0392 17.1125C22.0387 19.8567 21.0117 22.5015 19.1599 24.5268C17.3081 26.5521 14.7657 27.8114 12.0324 28.0569C9.29919 28.3025 6.57298 27.5167 4.38985 25.8539C2.20672 24.1911 0.724641 21.7718 0.235055 19.0715C0.0587036 17.7735 -0.00029908 16.4621 0.0587492 15.1535C0.0587492 14.8008 0.0587492 14.4482 0.0587492 14.0956L0.0391397 14.1348ZM20.4915 14.1348C20.4915 13.8409 20.4915 13.547 20.4915 13.2336C20.5425 11.9249 20.4836 10.6143 20.3152 9.31551C19.8603 6.97538 18.5458 4.89035 16.6305 3.47095C14.7152 2.05154 12.3378 1.40064 9.96661 1.64636C7.59537 1.89209 5.40205 3.01664 3.81849 4.79862C2.23492 6.58061 1.37588 8.89086 1.41049 11.2745C1.41049 13.2336 1.41049 15.0947 1.41049 17.0145C1.40667 17.5791 1.45254 18.1428 1.54761 18.6993C1.77661 20.0957 2.31527 21.4232 3.12408 22.5844C3.93289 23.7455 4.99134 24.7109 6.22182 25.4097C7.45229 26.1086 8.82358 26.5231 10.2351 26.623C11.6467 26.7229 13.0627 26.5055 14.3793 25.9869C16.0803 25.378 17.5628 24.2791 18.6401 22.8288C19.7174 21.3785 20.3411 19.6417 20.4327 17.8373C20.5895 16.6031 20.4915 15.3689 20.4915 14.1348Z" fill="#111111"/>
<path d="M10.951 18.9736L13.0472 16.8774C13.1417 16.7634 13.2466 16.6585 13.3606 16.564C13.4265 16.4953 13.5055 16.4405 13.5931 16.4032C13.6806 16.3658 13.7748 16.3465 13.87 16.3465C13.9652 16.3465 14.0593 16.3658 14.1469 16.4032C14.2344 16.4405 14.3135 16.4953 14.3793 16.564C14.5133 16.6997 14.5885 16.8827 14.5885 17.0733C14.5885 17.264 14.5133 17.447 14.3793 17.5827C14.1834 17.7982 13.9679 17.9941 13.772 18.19C13.0276 18.9344 12.3027 19.6788 11.5583 20.4037C11.491 20.5088 11.3983 20.5954 11.2887 20.6553C11.1792 20.7152 11.0563 20.7466 10.9314 20.7466C10.8066 20.7466 10.6837 20.7152 10.5741 20.6553C10.4646 20.5954 10.3719 20.5088 10.3045 20.4037L7.54228 17.661C7.40578 17.5188 7.32959 17.3293 7.32959 17.1321C7.32959 16.9349 7.40578 16.7454 7.54228 16.6032C7.61029 16.521 7.69561 16.4549 7.79212 16.4095C7.88863 16.3641 7.99396 16.3406 8.10061 16.3406C8.20726 16.3406 8.31259 16.3641 8.4091 16.4095C8.50561 16.4549 8.59093 16.521 8.65894 16.6032L10.7943 18.7385L10.951 18.9736Z" fill="#111111"/>
</g>
<defs>
<clipPath id="clip0_1108_461">
<rect width="22" height="27.9163" fill="white" transform="translate(0 0.16687)"/>
</clipPath>
</defs>
</svg>
