<?xml version="1.0" encoding="UTF-8"?>
<svg id="Layer_1" xmlns="http://www.w3.org/2000/svg" version="1.1" viewBox="0 0 766.8 382.4">
  <!-- Generator: Adobe Illustrator 29.0.1, SVG Export Plug-In . SVG Version: 2.1.0 Build 192)  -->
  <defs>
    <style>
      .st0 {
        fill: #f4f5f8;
      }
    </style>
  </defs>
  <path class="st0" d="M81.1,64v-20.7c0-5.5-1.9-8.3-5.5-8.3s-5.8,2.8-5.8,8.3v13.1c0,2.2.2,4.1.5,5.7.3,1.6,1.2,3.1,2.6,4.7,1.4,1.5,3.5,3.1,6.3,4.9s6.6,3.9,11.5,6.4l7.6,3.5c4.5,2.4,8.3,4.9,11.3,7.7,3,2.8,5.4,6,7.2,9.8,1.8,3.8,3,8.3,3.8,13.5s1.1,11.4,1.1,18.6v3.5c0,15-4.1,26.5-12.2,34.5-8.2,8.1-19.7,12.1-34.7,12.1s-26.1-3.9-33.9-11.8c-7.8-7.9-11.7-19.5-11.7-34.8v-17.4h40.3v20.4c0,5.7,2,8.6,6,8.6s5.8-2.8,5.8-8.3v-13.6c0-2.4-.2-4.3-.5-5.8s-1.2-3-2.5-4.4-3.3-2.9-5.8-4.5-6-3.6-10.6-5.9l-8.8-4.3c-4.5-2.4-8.3-5-11.3-7.8-3-2.9-5.5-6.3-7.3-10.3-1.9-4-3.2-8.7-3.9-14s-1.1-11.5-1.1-18.5v-2.5c0-15.3,3.9-26.8,11.6-34.7C48.8,3.9,60.1,0,74.8,0s26.2,4,34.4,12.1c8.1,8.1,12.2,19.5,12.2,34.3v17.6h-40.3Z"/>
  <path class="st0" d="M127.3,46.4c0-15.5,4-27,12-34.8C147.3,3.9,158.5,0,172.9,0s26.1,3.9,34.4,11.7c8.3,7.8,12.5,19.4,12.5,34.7v88.5c0,15.3-4.2,26.9-12.5,34.8-8.3,7.9-19.8,11.8-34.4,11.8s-25.7-3.9-33.6-11.7c-8-7.8-12-19.4-12-34.9V46.4h0ZM167.6,138.1c0,3,.6,5.2,1.8,6.4,1.2,1.3,2.5,1.9,4,1.9s3.1-.6,4.3-1.9c1.2-1.3,1.8-3.4,1.8-6.4V43.3c0-3.2-.6-5.4-1.8-6.6-1.2-1.2-2.6-1.8-4.3-1.8s-2.9.6-4,1.8c-1.2,1.2-1.8,3.4-1.8,6.6v94.8Z"/>
  <path class="st0" d="M265.9,37.5v35.8h23.2v35h-23.2v70.6h-40.3V2.5h65v35h-24.7,0Z"/>
  <path class="st0" d="M381.8,37.5h-24.2v141.4h-40.3V37.5h-24.4V2.5h89v35h-.1Z"/>
  <path class="st0" d="M424.1,2.5l1.5,106.6h2.8l5.5-106.6h26.2l5.8,106.6h2.8l1.5-106.6h40.3l-14.4,176.4h-44.9l-3.3-74.3h-2.8l-3.3,74.3h-44.6L383.8,2.5h40.3Z"/>
  <path class="st0" d="M584.6,2.3l15.1,176.7h-40.3l-2-40.1h-9.1l-2,40.1h-40.3l15.9-176.7h62.7,0ZM555.7,103.8l-1.5-31.8h-2.5l-1.8,31.8h5.8Z"/>
  <path class="st0" d="M648.9,2.3c14.8,0,26.2,3.9,34.3,11.7,8.1,7.8,12.1,19.7,12.1,35.7v1c0,7.2-.8,13.6-2.4,19-1.6,5.5-3.7,10-6.2,13.6s-5.3,6.4-8.3,8.3-6,3-8.8,3.2v2.8c2.9.2,5.8,1.3,8.8,3.4s5.8,5,8.3,8.7,4.6,8.2,6.2,13.5c1.6,5.3,2.4,11.2,2.4,17.8v2c0,7.2,0,13.7.4,19.4.3,5.7,1,11.3,2.1,16.6h-40.1c-1.2-5.4-1.9-11-2.1-17-.3-6-.4-12.4-.4-19.3v-20.4c0-3.2-.5-5.4-1.5-6.7s-2.8-1.9-5.3-1.9h-4.3v65.3h-40.3V2.3h45.1ZM644.1,78.6h4.3c2.5,0,4.3-.7,5.3-2s1.5-3.6,1.5-6.8v-23.9c0-3-.5-5.2-1.5-6.6-1-1.3-2.8-2-5.3-2h-4.3v41.3Z"/>
  <path class="st0" d="M741.9,37.5v31.2h24.2v35h-24.2v40.1h24.9v35h-65.3V2.5h65v35h-24.7,0Z"/>
  <path class="st0" d="M260.1,203.5c14.4,0,25.8,3.6,34.1,10.7,8.3,7.1,12.5,18.3,12.5,33.4v88.2c0,15.1-4.2,26.3-12.5,33.4s-19.7,10.7-34.1,10.7h-45.4v-176.4h45.4ZM255.3,344.9h4.5c2.2,0,3.8-.5,4.9-1.6s1.6-3.3,1.6-6.7v-89.7c0-3.4-.5-5.6-1.6-6.7-1.1-1.1-2.7-1.6-4.9-1.6h-4.5v106.3h0Z"/>
  <path class="st0" d="M352.8,238.5v31.2h24.2v35h-24.2v40.1h24.9v35h-65.3v-176.4h65v35h-24.7.1Z"/>
  <path class="st0" d="M434.4,265v-20.7c0-5.5-1.9-8.3-5.5-8.3s-5.8,2.8-5.8,8.3v13.1c0,2.2.2,4.1.5,5.7s1.2,3.1,2.6,4.7c1.4,1.5,3.5,3.1,6.3,4.9s6.6,3.9,11.5,6.4l7.6,3.5c4.5,2.4,8.3,4.9,11.3,7.7,3,2.8,5.4,6,7.2,9.8s3,8.3,3.8,13.5,1.1,11.4,1.1,18.6v3.5c0,15-4.1,26.5-12.2,34.5-8.2,8.1-19.7,12.1-34.7,12.1s-26.1-3.9-33.9-11.8-11.7-19.5-11.7-34.8v-17.4h40.3v20.4c0,5.7,2,8.6,6,8.6s5.8-2.8,5.8-8.3v-13.6c0-2.4-.2-4.3-.5-5.8s-1.2-3-2.5-4.4-3.3-2.9-5.8-4.5-6-3.6-10.6-5.9l-8.8-4.3c-4.5-2.4-8.3-5-11.3-7.8-3-2.9-5.5-6.3-7.3-10.3-1.9-4-3.1-8.7-3.9-14s-1.1-11.5-1.1-18.5v-2.5c0-15.3,3.9-26.8,11.6-34.7,7.7-7.8,19-11.7,33.8-11.7s26.2,4,34.4,12.1c8.1,8.1,12.2,19.5,12.2,34.3v17.6h-40.4Z"/>
  <path class="st0" d="M521.1,203.5v176.4h-40.3v-176.4h40.3Z"/>
  <path class="st0" d="M567,338.8c0,2.9.5,5,1.6,6.4s2.4,2.1,3.9,2.1,3.2-.8,4.4-2.5c1.3-1.7,1.9-4.3,1.9-7.8v-28.5h-7.3v-26.2h47.6v97.5h-27.5v-15.9h-2.8c-1.7,5.9-5.1,10.4-10.2,13.6-5.1,3.2-10.6,4.8-16.5,4.8s-8.4-.9-12.6-2.6c-4.2-1.8-8-4.5-11.5-8.3-3.4-3.8-6.2-8.6-8.3-14.5s-3.2-12.9-3.2-21.2v-88.7c0-15.5,4-27,12-34.7,8-7.6,19.2-11.5,33.6-11.5s26.1,3.9,34.4,11.7c8.3,7.8,12.5,19.3,12.5,34.4v28.5h-40.3v-31.2c0-3.2-.6-5.4-1.8-6.7s-2.5-1.9-4-1.9-3.1.6-4.3,1.9c-1.2,1.3-1.8,3.5-1.8,6.7v94.5h.2Z"/>
  <path class="st0" d="M720.2,203.5v176.4h-43.8l-17.9-105.6h-2.3l8.8,105.6h-40.3v-176.4h43.8l18.9,106.3h2.3l-9.8-106.3h40.3Z"/>
  <path class="st0" d="M746.2,339.6c-13.3,0-19.9,6.9-19.9,20.7s6.6,20.9,19.9,20.9,19.9-7,19.9-20.9-6.6-20.7-19.9-20.7Z"/>
</svg>