<?xml version="1.0" encoding="UTF-8"?>
<svg id="Layer_1" xmlns="http://www.w3.org/2000/svg" version="1.1" viewBox="0 0 766.8 382.4">
  <!-- Generator: Adobe Illustrator 29.0.1, SVG Export Plug-In . SVG Version: 2.1.0 Build 192)  -->
  <defs>
    <style>
      .st0 {
        fill: #f4f5f8;
      }
    </style>
  </defs>
  <path class="st0" d="M89.7,3.8v173.7h-37.1v-71.6c0-.8-.7-1.5-1.5-1.5h-10.8c-.8,0-1.5.7-1.5,1.5v71.6H1.5V3.8h37.3v67c0,.8.7,1.5,1.5,1.5h10.8c.8,0,1.5-.7,1.5-1.5V3.8h37.1M91.2,2.3h-40.1v68.5h-10.8V2.3H0v176.7h40.3v-73.1h10.8v73.1h40.1V2.3h0Z"/>
  <path class="st0" d="M172.2,3.8l14.8,173.7h-37.2l-1.9-38.7c0-.8-.7-1.4-1.5-1.4h-9.1c-.8,0-1.5.6-1.5,1.4l-1.9,38.7h-37.2L112.3,3.8h60M138.8,105.3h5.8c.4,0,.8-.2,1.1-.5s.4-.7.4-1.1l-1.5-31.8c0-.8-.7-1.4-1.5-1.4h-2.5c-.8,0-1.5.6-1.5,1.4l-1.8,31.8c0,.4.1.8.4,1.1.3.3.7.5,1.1.5M173.6,2.3h-62.7l-15.9,176.7h40.3l2-40.1h9.1l2,40.1h40.3L173.6,2.3h0ZM138.8,103.8l1.8-31.8h2.5l1.5,31.8h-5.8Z"/>
  <path class="st0" d="M237.9,3.8c14.3,0,25.5,3.8,33.3,11.3,7.7,7.4,11.6,19.1,11.6,34.6v1c0,7.1-.8,13.3-2.3,18.6-1.5,5.2-3.5,9.6-6,13.2-2.4,3.4-5,6.1-7.9,7.9-2.8,1.8-5.6,2.8-8.1,3-.8,0-1.4.7-1.4,1.5v2.8c0,.8.6,1.4,1.4,1.5,2.7.2,5.3,1.2,8,3.1,2.9,2,5.6,4.8,7.9,8.3,2.5,3.6,4.5,8.1,6,13.1,1.6,5.2,2.3,10.9,2.3,17.4v2c0,8.1.1,14.3.4,19.5s.9,10.2,1.8,15h-37.1c-1-5-1.6-10.1-1.8-15.6-.3-5.4-.4-11.5-.4-19.2v-20.4c0-3.5-.6-6-1.8-7.6-1.3-1.6-3.5-2.5-6.5-2.5h-4.3c-.8,0-1.5.7-1.5,1.5v63.8h-37.3V3.8h43.6M233.1,80.1h4.3c3.7,0,5.6-1.4,6.5-2.6,1.2-1.6,1.8-4.1,1.8-7.7v-23.9c0-3.4-.6-5.8-1.8-7.5h0c-.9-1.2-2.8-2.6-6.5-2.6h-4.3c-.8,0-1.5.7-1.5,1.5v41.3c0,.8.7,1.5,1.5,1.5M237.9,2.3h-45.1v176.7h40.3v-65.3h4.3c2.5,0,4.3.6,5.3,1.9s1.5,3.5,1.5,6.7v20.4c0,6.9,0,13.3.4,19.3.2,6,.9,11.6,2.1,17h40.1c-1.1-5.3-1.8-10.9-2.1-16.6s-.4-12.2-.4-19.4v-2c0-6.6-.8-12.5-2.4-17.8s-3.7-9.8-6.2-13.5-5.3-6.6-8.3-8.7-5.9-3.2-8.8-3.4v-2.8c2.8-.2,5.8-1.3,8.8-3.2,3-1.9,5.8-4.7,8.3-8.3s4.6-8.1,6.2-13.6c1.6-5.4,2.4-11.8,2.4-19v-1c0-16-4-27.9-12.1-35.7s-19.5-11.7-34.3-11.7h0ZM233.1,78.6v-41.3h4.3c2.5,0,4.3.7,5.3,2,1,1.4,1.5,3.6,1.5,6.6v23.9c0,3.2-.5,5.5-1.5,6.8s-2.8,2-5.3,2h-4.3Z"/>
  <path class="st0" d="M335.9,4c14,0,25.1,3.5,33.1,10.3,7.9,6.8,12,17.7,12,32.3v88.2c0,14.6-4,25.5-12,32.3-8,6.9-19.2,10.3-33.1,10.3h-43.9V4h43.9M331.1,145.4h4.5c2.6,0,4.6-.7,6-2,1.4-1.4,2-3.9,2-7.8V45.9c0-3.9-.6-6.4-2-7.8-1.4-1.4-3.3-2-6-2h-4.5c-.8,0-1.5.7-1.5,1.5v106.3c0,.8.7,1.5,1.5,1.5M335.9,2.5h-45.4v176.4h45.4c14.4,0,25.8-3.6,34.1-10.7s12.5-18.3,12.5-33.4V46.6c0-15.1-4.2-26.3-12.5-33.4-8.3-7.1-19.7-10.7-34.1-10.7h0ZM331.1,143.9V37.6h4.5c2.2,0,3.8.5,4.9,1.6s1.6,3.3,1.6,6.7v89.7c0,3.4-.5,5.6-1.6,6.7s-2.7,1.6-4.9,1.6h-4.5Z"/>
  <path class="st0" d="M508.9,4l-14.2,173.4h-42.1l-3.2-72.9c0-.8-.7-1.4-1.5-1.4h-2.8c-.8,0-1.5.6-1.5,1.4l-3.2,72.9h-41.8l-13.2-173.4h37.2l1.5,105.1c0,.8.7,1.5,1.5,1.5h2.8c.8,0,1.5-.6,1.5-1.4l5.4-105.2h23.4l5.7,105.2c0,.8.7,1.4,1.5,1.4h2.8c.8,0,1.5-.7,1.5-1.5l1.5-105.1h37.2M510.5,2.5h0ZM510.5,2.5h-40.3l-1.5,106.6h-2.8l-5.8-106.6h-26.2l-5.5,106.6h-2.8l-1.5-106.6h-40.3l13.4,176.4h44.6l3.3-74.3h2.8l3.3,74.3h44.9L510.5,2.5h0Z"/>
  <path class="st0" d="M583.2,3.8l14.8,173.7h-37.2l-1.9-38.7c0-.8-.7-1.4-1.5-1.4h-9.1c-.8,0-1.5.6-1.5,1.4l-1.9,38.7h-37.2l15.6-173.7h60M549.8,105.3h5.8c.4,0,.8-.2,1.1-.5s.4-.7.4-1.1l-1.5-31.8c0-.8-.7-1.4-1.5-1.4h-2.5c-.8,0-1.5.6-1.5,1.4l-1.8,31.8c0,.4,0,.8.4,1.1.3.3.7.5,1.1.5M584.6,2.3h0ZM584.6,2.3h-62.7l-15.9,176.7h40.3l2-40.1h9.1l2,40.1h40.3l-15.1-176.7h0ZM549.8,103.8l1.8-31.8h2.5l1.5,31.8h-5.8Z"/>
  <path class="st0" d="M648.9,3.8c14.3,0,25.5,3.8,33.3,11.3,7.7,7.4,11.6,19.1,11.6,34.6v1c0,7.1-.8,13.3-2.3,18.6-1.5,5.2-3.5,9.6-6,13.2-2.4,3.4-5,6.1-7.9,7.9-2.8,1.8-5.6,2.8-8.1,3-.8,0-1.4.7-1.4,1.5v2.8c0,.8.6,1.4,1.4,1.5,2.7.2,5.3,1.2,8,3.1,2.9,2,5.6,4.8,7.9,8.3,2.5,3.6,4.5,8.1,6,13.1,1.6,5.2,2.3,10.9,2.3,17.4v2c0,8.1,0,14.3.4,19.5.3,5.2.9,10.2,1.8,15h-37.1c-1-5-1.6-10.1-1.8-15.6-.3-5.4-.4-11.5-.4-19.2v-20.4c0-3.5-.6-6-1.8-7.6-1.3-1.6-3.5-2.5-6.5-2.5h-4.3c-.8,0-1.5.7-1.5,1.5v63.8h-37.3V3.8h43.6M644.1,80.1h4.3c3.7,0,5.6-1.4,6.5-2.6,1.2-1.6,1.8-4.1,1.8-7.7v-23.9c0-3.4-.6-5.8-1.8-7.5h0c-.9-1.2-2.8-2.6-6.5-2.6h-4.3c-.8,0-1.5.7-1.5,1.5v41.3c0,.8.7,1.5,1.5,1.5M648.9,2.3h-45.1v176.7h40.3v-65.3h4.3c2.5,0,4.3.6,5.3,1.9s1.5,3.5,1.5,6.7v20.4c0,6.9,0,13.3.4,19.3.2,6,.9,11.6,2.1,17h40.1c-1.1-5.3-1.8-10.9-2.1-16.6-.3-5.7-.4-12.2-.4-19.4v-2c0-6.6-.8-12.5-2.4-17.8-1.6-5.3-3.7-9.8-6.2-13.5s-5.3-6.6-8.3-8.7-5.9-3.2-8.8-3.4v-2.8c2.8-.2,5.8-1.3,8.8-3.2,3-1.9,5.8-4.7,8.3-8.3s4.6-8.1,6.2-13.6c1.6-5.4,2.4-11.8,2.4-19v-1c0-16-4-27.9-12.1-35.7s-19.5-11.7-34.3-11.7h0ZM644.1,78.6v-41.3h4.3c2.5,0,4.3.7,5.3,2,1,1.4,1.5,3.6,1.5,6.6v23.9c0,3.2-.5,5.5-1.5,6.8s-2.8,2-5.3,2h-4.3Z"/>
  <path class="st0" d="M765,4v32h-23.2c-.8,0-1.5.7-1.5,1.5s0,.4,0,.5v30.7c0,.8.7,1.5,1.5,1.5h22.7v32h-22.7c-.8,0-1.5.7-1.5,1.5v40.1c0,.8.7,1.5,1.5,1.5h23.4v32h-62.3V4h62M766.5,2.5h-65v176.3h65.3v-35h-24.9v-40.1h24.2v-35h-24.2v-31.2h24.7V2.5h0Z"/>
  <path class="st0" d="M45.4,205c14,0,25.1,3.5,33.1,10.3,7.9,6.8,12,17.7,12,32.3v88.2c0,14.6-4,25.5-12,32.3-8,6.9-19.2,10.3-33.1,10.3H1.5v-173.4h43.9M40.6,346.4h4.5c2.6,0,4.6-.7,6-2,1.4-1.4,2-3.9,2-7.8v-89.7c0-3.9-.6-6.4-2-7.8-1.4-1.4-3.3-2-6-2h-4.5c-.8,0-1.5.7-1.5,1.5v106.3c0,.8.7,1.5,1.5,1.5M45.4,203.5H0v176.4h45.4c14.4,0,25.8-3.6,34.1-10.7s12.5-18.3,12.5-33.4v-88.2c0-15.1-4.2-26.3-12.5-33.4s-19.7-10.7-34.1-10.7h0ZM40.6,344.9h0v-106.3h4.5c2.2,0,3.8.5,4.9,1.6,1.1,1.1,1.6,3.3,1.6,6.7v89.7c0,3.4-.5,5.6-1.6,6.7s-2.7,1.6-4.9,1.6h-4.5Z"/>
  <path class="st0" d="M161.2,204.9v32h-23.2c-.6,0-1.2.4-1.4.9-.2.4-.1.8,0,1.1v30.8c0,.8.7,1.5,1.5,1.5h22.7v32h-22.7c-.8,0-1.5.7-1.5,1.5v40.1c0,.8.7,1.5,1.5,1.5h23.4v32h-62.3v-173.4h62M162.7,203.4h-65v176.4h65.3v-35h-24.9v-40.1h24.2v-35h-24.2v-31.2h-.1,24.7v-35h0Z"/>
  <path class="st0" d="M213.5,202.5c14.5,0,25.4,3.8,33.3,11.7,7.8,7.8,11.8,19,11.8,33.2v16.1h-37.4v-19.2c0-8.5-4.4-9.8-7-9.8-4.6,0-7.3,3.7-7.3,9.8v13.1c0,2.1.2,4.1.5,6,.3,1.8,1.3,3.5,3,5.4,1.4,1.5,3.5,3.2,6.6,5.1,2.7,1.8,6.5,3.9,11.6,6.5h0l7.6,3.5c4.7,2.5,8.2,4.9,10.9,7.5,2.9,2.7,5.2,5.8,6.9,9.3s2.9,7.8,3.7,13.1c.7,4.8,1.1,10.6,1.1,18.4v3.5c0,14.5-4,25.7-11.8,33.4-7.9,7.9-19,11.7-33.6,11.7s-25.3-3.7-32.8-11.4c-7.5-7.6-11.3-18.9-11.3-33.7v-15.9h37.3v18.9c0,3.8,1,10.1,7.5,10.1s7.3-5.3,7.3-9.8v-13.6c0-2.3-.2-4.3-.5-6.1-.3-1.7-1.3-3.4-2.9-5.1-1.3-1.4-3.3-3-6.1-4.7-2.8-1.8-6.6-3.9-10.8-6l-8.8-4.3c-4.4-2.4-8.1-4.9-10.9-7.5-3-2.9-5.3-6.2-7-9.9-1.7-3.6-2.9-8-3.8-13.6-.7-4.8-1.1-10.8-1.1-18.3v-2.5c0-14.7,3.8-26,11.2-33.6,7.4-7.5,18.4-11.3,32.7-11.3M213.5,201c-14.8,0-26.1,3.9-33.8,11.7-7.7,7.9-11.6,19.4-11.6,34.7v2.5c0,7,.3,13.2,1.1,18.5s2,10,3.9,14c1.8,4,4.3,7.4,7.3,10.3,3,2.8,6.8,5.4,11.3,7.8l8.8,4.3c4.6,2.3,8.1,4.3,10.6,5.9s4.5,3.1,5.8,4.5,2.2,2.9,2.5,4.4.5,3.4.5,5.8v13.6c0,5.5-1.8,8.3-5.8,8.3s-6-2.9-6-8.6v-20.4h-40.3v17.4c0,15.3,3.9,26.9,11.7,34.8s18.9,11.8,33.9,11.8,26.5-4,34.7-12.1c8.1-8,12.2-19.5,12.2-34.5v-3.5c0-7.2-.3-13.4-1.1-18.6-.8-5.2-2-9.7-3.8-13.5s-4.2-7-7.2-9.8-6.8-5.3-11.3-7.7l-7.6-3.5c-4.9-2.5-8.7-4.6-11.5-6.4s-4.9-3.4-6.3-4.9c-1.4-1.6-2.3-3.1-2.6-4.7s-.5-3.5-.5-5.7v-13.1c0-5.5,2.2-8.3,5.8-8.3s5.5,2.8,5.5,8.3v20.7h40.4v-17.6c0-14.8-4.1-26.2-12.2-34.3-8.2-8.1-19.6-12.1-34.4-12.1h0Z"/>
  <path class="st0" d="M304.9,205v173.4h-37.3v-173.4h37.3M306.4,203.5h-40.3v176.4h40.3v-176.4h0Z"/>
  <path class="st0" d="M357.5,202.3c14.2,0,25.4,3.8,33.4,11.3s12,18.7,12,33.3v27h-37.3v-29.7c0-3.6-.7-6.1-2.2-7.7-1.5-1.6-3.1-2.4-5.1-2.4s-4,.9-5.4,2.4c-1.5,1.6-2.2,4.1-2.2,7.7v94.5c0,.2,0,.4.1.5,0,3.1.7,5.3,1.9,6.9,1.4,1.8,3.1,2.7,5.1,2.7s4.1-1.1,5.6-3.1c1.5-1.9,2.2-4.8,2.2-8.7v-28.5c0-.8-.7-1.5-1.5-1.5h-5.8v-23.2h44.6v94.5h-24.5v-14.4c0-.8-.7-1.5-1.5-1.5h-2.8c-.7,0-1.3.4-1.4,1.1-1.6,5.5-4.7,9.7-9.6,12.7-4.8,3-10.1,4.6-15.7,4.6s-7.9-.8-12-2.5c-4.1-1.8-7.7-4.3-11-7.9-3.3-3.7-6-8.4-8-14-2-5.7-3-12.5-3-20.7v-88.7c0-15.1,3.8-26.1,11.5-33.6,7.7-7.4,18.7-11.1,32.6-11.1M357.5,200.8c-14.4,0-25.6,3.9-33.6,11.5-8,7.7-12,19.2-12,34.7v88.7c0,8.3,1,15.3,3.1,21.2,2.1,5.9,4.9,10.7,8.3,14.5,3.5,3.8,7.3,6.5,11.5,8.3,4.2,1.7,6.7,2.6,12.6,2.6s11.4-1.6,16.5-4.8c5.1-3.2,8.5-7.7,10.2-13.6h2.8v15.9h27.5v-97.5h-47.6v26.2h7.3v28.5c0,3.5-.6,6.1-1.9,7.8s-2.9,2.5-4.4,2.5-2.8-.7-3.9-2.1-1.6-3.5-1.6-6.4h0v-94.6c0-3.2.6-5.4,1.8-6.7,1.2-1.3,2.8-1.9,4.3-1.9s2.8.6,4,1.9c1.2,1.3,1.8,3.5,1.8,6.7v31.2h40.3v-28.5c0-15.1-4.2-26.6-12.5-34.4s-20-11.7-34.4-11.7h0Z"/>
  <path class="st0" d="M504,205v173.4h-41l-17.7-104.4c-.1-.7-.7-1.2-1.5-1.2h-2.3c-.4,0-.8.2-1.1.5-.3.3-.4.7-.4,1.1l8.7,104h-37.2v-173.4h41l18.7,105.1c.1.7.7,1.2,1.5,1.2h2.3c.4,0,.8-.2,1.1-.5.3-.3.4-.7.4-1.1l-9.6-104.7h37.2M505.5,203.5h-40.3l9.8,106.3h-2.3l-18.9-106.3h-43.8v176.4h40.3l-8.8-105.6h2.3l17.9,105.6h43.8v-176.4h0Z"/>
  <path class="st0" d="M531.2,339.6c-13.3,0-19.9,6.9-19.9,20.7s6.6,20.9,19.9,20.9,19.9-7,19.9-20.9-6.6-20.7-19.9-20.7ZM531.3,379.7c-12.3,0-18.4-6.4-18.4-19.4s6-19.2,18.4-19.2h.1c5.9,0,10.5,1.7,13.5,4.9,3.1,3.3,4.6,8.2,4.6,14.5,0,12.9-5.9,19.2-18.2,19.2Z"/>
</svg>