<?xml version="1.0" encoding="UTF-8"?>
<svg id="Layer_1" xmlns="http://www.w3.org/2000/svg" version="1.1" viewBox="0 0 1168 152">
  <!-- Generator: Adobe Illustrator 29.0.1, SVG Export Plug-In . SVG Version: 2.1.0 Build 192)  -->
  <defs>
    <style>
      .st0 {
        fill: #f4f5f8;
      }
    </style>
  </defs>
  <path class="st0" d="M489.5.3v103.1L379.3.3h110.2Z"/>
  <path class="st0" d="M490.7,151.3h-111.7V47.4l111.7,103.9Z"/>
  <path class="st0" d="M122.3,136.4c-4.1,3.2-8.6,5.9-13.3,8.2-5,2.3-10.2,4-15.6,5.1-6.2,1.3-12.5,2-18.9,2-10.2,0-20.3-1.9-29.7-5.9-8.8-3.7-16.8-9.1-23.5-16-6.7-6.9-12-15.1-15.6-24-3.8-9.5-5.7-19.6-5.7-29.8s1.8-20.1,5.5-29.5c3.6-9,8.9-17.2,15.6-24.2,6.8-7,14.9-12.5,23.9-16.3C54.7,1.9,65.1,0,75.5,0s12.3.5,18.3,1.7c5.2,1,10.3,2.6,15.3,4.7,4.5,2,8.8,4.4,12.8,7.2,3.9,2.8,7.7,5.9,11.1,9.3l-16.6,19c-5.6-5.2-11.8-9.7-18.6-13.2-6.9-3.5-14.6-5.2-22.4-5.1-6.7,0-13.3,1.3-19.4,4.1-5.8,2.7-10.9,6.4-15.3,11.1-4.4,4.8-7.9,10.3-10.2,16.4-2.4,6.5-3.6,13.4-3.6,20.3s1.2,13.8,3.6,20.3c2.3,6.1,5.7,11.8,10.2,16.6,4.3,4.7,9.5,8.5,15.3,11.2,6.1,2.8,12.7,4.2,19.4,4.1,8,.2,15.9-1.5,23-5.1,6.9-3.8,13.3-8.5,19-13.9l16.5,16.7c-3.6,3.9-7.5,7.5-11.7,10.8v.2Z"/>
  <path class="st0" d="M313.6,104.7c-3.6,9-9,17.2-15.9,24.2-7.2,7.3-15.9,13.1-25.4,17s-19.7,5.9-30,5.8c-10.6.1-21.2-1.9-31-6-9-3.7-17.2-9.2-24.1-16.2-6.8-6.9-12.1-15.1-15.7-24.1-7.5-18.8-7.5-39.8,0-58.6,3.6-9,9.1-17.3,15.9-24.2,7.2-7.3,15.8-13,25.3-16.9,9.7-3.9,19.8-5.8,30.1-5.7,10.6-.1,21.2,1.9,31,6,9,3.7,17.2,9.2,24,16.1,6.8,6.9,12.2,15.2,15.8,24.2,7.5,18.8,7.5,39.8,0,58.6v-.2h0ZM288.6,55.6c-2.3-6.1-5.8-11.8-10.2-16.6-4.5-4.8-9.8-8.7-15.8-11.3-6.3-2.8-13.2-4.2-20.1-4.2s-13.3,1.2-19.4,3.9c-6.1,2.6-11.6,6.5-16.2,11.4-4.4,4.8-7.9,10.5-10.2,16.6-4.9,13-4.9,27.4,0,40.4,2.3,6.1,5.7,11.8,10.2,16.6,4.5,4.8,9.8,8.6,15.8,11.3,6.3,2.8,13.1,4.2,20,4.2s13.7-1.4,20-4.2c5.9-2.6,11.2-6.4,15.6-11.1,4.4-4.8,7.9-10.4,10.2-16.5,4.9-13,4.9-27.4,0-40.4h0Z"/>
  <path class="st0" d="M670.7,0h27.9l-63.1,151.3h-22.6L550.5,0h28.5l45.8,116.3L670.7,0Z"/>
  <path class="st0" d="M845.6,23.3h-82.9v40h73.5v23.2h-73.5v41.6h84v23.5h-109.5V0h108.4v23.2h0Z"/>
  <path class="st0" d="M990,151.3l-39.1-55.9h-32.1v55.9h-25.4V0h65.1c7.7-.1,15.4,1,22.7,3.3,6.3,1.9,12.1,5,17.1,9.2,4.7,4,8.4,9,10.8,14.6,2.6,6.1,3.9,12.7,3.8,19.4,0,5.6-.8,11.1-2.6,16.4-3.3,9.3-9.7,17.1-18.2,22.2-4.4,2.7-9.2,4.7-14.1,6l42.6,60.2h-30.6ZM978.7,29.5c-6.6-4.5-14.5-6.7-22.5-6.2h-37.5v49.4h37.8c7.9.4,15.7-1.9,22.1-6.7,2.7-2.2,4.8-4.9,6.2-8.1s2.1-6.6,2-10c.2-3.5-.4-7-1.8-10.2-1.4-3.2-3.6-6-6.3-8.2Z"/>
  <path class="st0" d="M1121.5,151.3h-25.9V23.9h-46.5V0h118.9v23.9h-46.5v127.4Z"/>
</svg>