<?xml version="1.0" encoding="UTF-8"?>
<svg id="Layer_1" xmlns="http://www.w3.org/2000/svg" version="1.1" viewBox="0 0 1168 152">
  <!-- Generator: Adobe Illustrator 29.0.1, SVG Export Plug-In . SVG Version: 2.1.0 Build 192)  -->
  <defs>
    <style>
      .st0 {
        fill: #fff;
      }

      .st1 {
        opacity: .6;
      }
    </style>
  </defs>
  <g class="st1">
    <path class="st0" d="M489,.8v101.4L380.6.8h108.4M489.5.3h-110.2l110.2,103.1V.3h0Z"/>
  </g>
  <g class="st1">
    <path class="st0" d="M379.5,48.5l109.9,102.3h-109.9V48.5M379,47.4v103.9h111.7l-111.7-103.9h0Z"/>
  </g>
  <g class="st1">
    <path class="st0" d="M75.5.5c6.5,0,12.6.6,18.2,1.7,5,1,10.1,2.5,15.2,4.7,4.5,2,8.8,4.4,12.7,7.1,4.1,2.9,7.7,5.9,10.7,8.9l-16,18.3c-5.7-5.3-11.9-9.6-18.3-12.9-6.7-3.4-14.3-5.2-22-5.2-.2,0-.4,0-.6,0-7,0-13.6,1.4-19.6,4.1-5.8,2.7-11,6.5-15.5,11.2-4.6,5-8,10.6-10.3,16.6-2.4,6.5-3.6,13.4-3.6,20.5s1.2,13.9,3.6,20.5c2.4,6.4,5.9,12.1,10.3,16.8,4.4,4.8,9.6,8.6,15.5,11.3,6,2.8,12.4,4.2,18.9,4.2s.5,0,.7,0c.4,0,.9,0,1.3,0,7.7,0,15.3-1.8,22-5.2,6.8-3.7,13.1-8.3,18.7-13.6l15.8,16c-3.5,3.7-7.3,7.2-11.3,10.4l-.3.3v.2c-3.7,2.9-8,5.5-12.8,7.9-4.9,2.3-10.2,4-15.5,5.1-6.3,1.3-12.6,2-18.8,2-10.4,0-20.4-2-29.5-5.9-8.9-3.7-16.7-9.1-23.3-15.9-6.7-6.9-11.9-14.9-15.5-23.8C2.4,96.2.5,86.3.5,76s1.8-20.1,5.5-29.3c3.6-8.9,8.8-17,15.5-24,6.7-6.9,14.7-12.4,23.7-16.2,9.4-4,19.6-6,30.3-6M75.5,0c-10.4,0-20.8,1.9-30.5,6-9,3.8-17.1,9.3-23.9,16.3-6.7,7-12,15.2-15.6,24.2C1.8,55.9,0,65.9,0,76s1.9,20.3,5.7,29.8c3.6,8.9,8.9,17.1,15.6,24,6.7,6.9,14.7,12.3,23.5,16,9.4,4,19.5,5.9,29.7,5.9s12.7-.7,18.9-2c5.4-1.1,10.6-2.8,15.6-5.1,4.7-2.3,9.2-5,13.3-8.2v-.2c4.1-3.3,8-6.9,11.6-10.8l-16.5-16.7c-5.7,5.4-12.1,10.1-19,13.9-6.7,3.4-14.2,5.1-21.7,5.1s-.8,0-1.3,0c-.2,0-.4,0-.7,0-6.5,0-12.8-1.4-18.7-4.1-5.8-2.7-11-6.5-15.3-11.2-4.5-4.8-7.9-10.5-10.2-16.6-2.4-6.5-3.6-13.4-3.6-20.3s1.2-13.8,3.6-20.3c2.3-6.1,5.8-11.6,10.2-16.4,4.4-4.7,9.5-8.4,15.3-11.1,6.1-2.8,12.7-4.1,19.4-4.1.2,0,.4,0,.6,0,7.6,0,15,1.7,21.8,5.1,6.8,3.5,13,8,18.6,13.2l16.6-19c-3.4-3.4-7.2-6.5-11.1-9.3-4-2.8-8.3-5.2-12.8-7.2-5-2.1-10.1-3.7-15.3-4.7-6-1.2-12.2-1.7-18.3-1.7h0Z"/>
  </g>
  <g class="st1">
    <path class="st0" d="M242,.5c.3,0,.5,0,.8,0,.3,0,.5,0,.8,0,10.5,0,20.6,2,30.1,6,8.9,3.7,17.1,9.2,23.8,16,6.7,6.8,12.1,15.1,15.7,24,7.2,17.9,7.5,37.6,1,55.7h0c0,0-1,2.3-1,2.3-3.6,8.9-8.9,17-15.8,24-7.1,7.2-15.8,13-25.2,16.9-9.3,3.8-19.1,5.8-29.1,5.8s-.5,0-.7,0c-.3,0-.5,0-.8,0-10.5,0-20.6-2-30.1-6-9-3.7-17.1-9.1-23.9-16.1-6.7-6.8-12-14.9-15.6-23.9-7.5-18.8-7.5-39.5,0-58.2,3.5-8.8,9-17.1,15.8-24,7.1-7.2,15.6-12.9,25.1-16.8,9.4-3.8,19.2-5.7,29.1-5.7M242.7,128.4c7.1,0,13.9-1.4,20.2-4.2,5.9-2.6,11.2-6.4,15.8-11.2,4.5-4.9,8-10.5,10.3-16.7,4.9-13,5-27.4.1-40.5h.1c0-.1-.1-.4-.1-.4-2.3-6.1-5.9-11.9-10.3-16.8-4.7-5-10.1-8.9-16-11.4-6.2-2.8-13.3-4.2-20.3-4.2s-13.7,1.3-19.6,3.9c-6.1,2.6-11.7,6.5-16.4,11.5-4.4,4.8-8,10.6-10.3,16.8-5,13.1-5,27.6,0,40.8,2.4,6.4,5.9,12.1,10.3,16.8,4.6,4.9,9.9,8.7,16,11.4,6.3,2.8,13.1,4.2,20.2,4.2M242,0c-10,0-19.9,1.9-29.3,5.7-9.5,3.9-18.1,9.6-25.3,16.9-6.8,6.9-12.3,15.2-15.9,24.2-7.5,18.8-7.5,39.8,0,58.6,3.6,9,8.9,17.2,15.7,24.1,6.9,7,15.1,12.5,24.1,16.2,9.6,4,19.9,6,30.2,6s.5,0,.8,0c.2,0,.5,0,.7,0,10,0,20-2,29.3-5.8,9.5-3.9,18.2-9.7,25.4-17,6.9-7,12.3-15.2,15.9-24.2h0,0v.2c7.5-18.8,7.5-39.8,0-58.6-3.6-9-9-17.3-15.8-24.2-6.8-6.9-15-12.4-24-16.1C264.2,2,253.9,0,243.6,0s-.5,0-.8,0c-.3,0-.5,0-.8,0h0ZM242.7,127.9c-6.9,0-13.7-1.4-20-4.2-6-2.7-11.3-6.5-15.8-11.3s-7.9-10.5-10.2-16.6c-4.9-13-4.9-27.4,0-40.4,2.3-6.1,5.8-11.8,10.2-16.6,4.6-4.9,10.1-8.8,16.2-11.4,6.1-2.7,12.7-3.9,19.4-3.9s13.8,1.4,20.1,4.2c6,2.6,11.3,6.5,15.8,11.3,4.4,4.8,7.9,10.5,10.2,16.6h0c4.9,13.1,4.9,27.5,0,40.5-2.3,6.1-5.8,11.7-10.2,16.5-4.4,4.7-9.7,8.5-15.6,11.1-6.3,2.8-13.1,4.2-20,4.2h0Z"/>
  </g>
  <g class="st1">
    <path class="st0" d="M697.8.5l-62.7,150.3h-21.9L551.2.5h27.4l45.7,116,.5,1.2.5-1.2L671,.5h26.8M698.6,0h-27.9l-45.9,116.3L579,0h-28.5l62.4,151.3h22.6L698.6,0h0Z"/>
  </g>
  <g class="st1">
    <path class="st0" d="M845.1.5v22.3h-82.9v41h73.5v22.2h-73.5v42.6h84v22.5h-108.5V.5h107.4M845.6,0h-108.4v151.6h109.5v-23.5h-84v-41.6h73.5v-23.2h-73.5V23.3h82.9V0h0Z"/>
  </g>
  <g class="st1">
    <path class="st0" d="M959.5.5h0c7.4,0,14.7,1.1,21.6,3.3,6.3,1.9,12,5,16.9,9.1,4.6,3.9,8.3,8.9,10.7,14.4,2.6,6.1,3.9,12.5,3.8,19.2,0,5.7-.9,11.2-2.6,16.2-3.2,9.1-9.6,16.9-18,21.9-4.3,2.6-9,4.6-14,5.9l-.7.2.4.6,42,59.4h-29.4l-39-55.7v-.2h-33v55.9h-24.4V.5h64.6c.3,0,.6,0,1,0M918.2,73.2h38.3c.6,0,1.2,0,1.8,0,7.5,0,14.7-2.4,20.7-6.9,2.8-2.3,4.9-5.1,6.3-8.3,1.5-3.3,2.1-6.8,2-10.2.2-3.6-.4-7.2-1.8-10.4-1.4-3.2-3.6-6.1-6.5-8.4-6.1-4.2-13.2-6.4-20.5-6.4s-1.5,0-2.2,0h-38v50.4M959.5,0c-.3,0-.6,0-1,0h-65.1v151.3h25.4v-55.9h32.1l39.1,55.9h30.6l-42.6-60.2c4.9-1.3,9.7-3.3,14.1-6,8.5-5.1,14.9-12.9,18.2-22.2,1.8-5.3,2.6-10.8,2.6-16.4.1-6.7-1.2-13.3-3.8-19.4-2.4-5.6-6.1-10.6-10.8-14.6-5-4.2-10.8-7.3-17.1-9.2C974.2,1.1,966.8,0,959.5,0h0ZM918.7,72.7V23.3h37.5c.7,0,1.5,0,2.2,0,7.2,0,14.3,2.2,20.3,6.3,2.7,2.2,4.9,5,6.3,8.2,1.4,3.2,2,6.7,1.8,10.2,0,3.4-.6,6.8-2,10-1.4,3.2-3.5,5.9-6.2,8.1-5.9,4.4-13,6.7-20.3,6.7s-1.2,0-1.8,0h-37.8Z"/>
  </g>
  <g class="st1">
    <path class="st0" d="M1167.5.5v22.9h-46.5v127.4h-24.9V23.4h-46.5V.5h117.9M1168,0h-118.9v23.9h46.5v127.4h25.9V23.9h46.5V0h0Z"/>
  </g>
</svg>