<svg width="31" height="30" viewBox="0 0 31 30" fill="none" xmlns="http://www.w3.org/2000/svg">
<path d="M19.8875 3.53711H11.1125C8 3.53711 7.3125 5.08711 6.9125 6.98711L5.5 13.7496H25.5L24.0875 6.98711C23.6875 5.08711 23 3.53711 19.8875 3.53711Z" stroke="white" stroke-width="1.875" stroke-linecap="round" stroke-linejoin="round"/>
<path d="M27.9874 24.775C28.1249 26.2375 26.9499 27.5 25.4499 27.5H23.0999C21.7499 27.5 21.5624 26.925 21.3249 26.2125L21.0749 25.4625C20.7249 24.4375 20.4999 23.75 18.6999 23.75H12.2999C10.4999 23.75 10.2374 24.525 9.92491 25.4625L9.67491 26.2125C9.43741 26.925 9.24991 27.5 7.89991 27.5H5.54991C4.04991 27.5 2.87491 26.2375 3.01241 24.775L3.71241 17.1625C3.88741 15.2875 4.24991 13.75 7.52491 13.75H23.4749C26.7499 13.75 27.1124 15.2875 27.2874 17.1625L27.9874 24.775Z" stroke="white" stroke-width="1.875" stroke-linecap="round" stroke-linejoin="round"/>
<path d="M5.5 10H4.25" stroke="white" stroke-width="1.875" stroke-linecap="round" stroke-linejoin="round"/>
<path d="M26.75 10H25.5" stroke="white" stroke-width="1.875" stroke-linecap="round" stroke-linejoin="round"/>
<path d="M15.5 3.75V6.25" stroke="white" stroke-width="1.875" stroke-linecap="round" stroke-linejoin="round"/>
<path d="M13.625 6.25H17.375" stroke="white" stroke-width="1.875" stroke-linecap="round" stroke-linejoin="round"/>
<path d="M8 18.75H11.75" stroke="white" stroke-width="1.875" stroke-linecap="round" stroke-linejoin="round"/>
<path d="M19.25 18.75H23" stroke="white" stroke-width="1.875" stroke-linecap="round" stroke-linejoin="round"/>
</svg>
