<svg width="31" height="31" viewBox="0 0 31 31" fill="none" xmlns="http://www.w3.org/2000/svg">
<path d="M26.75 9.25V21.75C26.75 25.5 24.875 28 20.5 28H10.5C6.125 28 4.25 25.5 4.25 21.75V9.25C4.25 5.5 6.125 3 10.5 3H20.5C24.875 3 26.75 5.5 26.75 9.25Z" stroke="white" stroke-width="1.875" stroke-miterlimit="10" stroke-linecap="round" stroke-linejoin="round"/>
<path d="M20.8125 14.25H10.1875C8.9875 14.25 8 13.2625 8 12.0625V8.9375C8 7.7375 8.9875 6.75 10.1875 6.75H20.8125C22.0125 6.75 23 7.7375 23 8.9375V12.0625C23 13.2625 22.0125 14.25 20.8125 14.25Z" stroke="white" stroke-width="1.875" stroke-miterlimit="10" stroke-linecap="round" stroke-linejoin="round"/>
<path d="M13.375 19.6006L10.5 22.4756" stroke="white" stroke-width="1.875" stroke-miterlimit="10" stroke-linecap="round" stroke-linejoin="round"/>
<path d="M10.5376 19.6367L13.4126 22.5117" stroke="white" stroke-width="1.875" stroke-miterlimit="10" stroke-linecap="round" stroke-linejoin="round"/>
<path d="M21.1125 19.6621H21.1376" stroke="white" stroke-width="1.875" stroke-miterlimit="10" stroke-linecap="round" stroke-linejoin="round"/>
<path d="M18.6125 22.3756V22.3506" stroke="white" stroke-width="1.875" stroke-miterlimit="10" stroke-linecap="round" stroke-linejoin="round"/>
</svg>
