<svg width="31" height="31" viewBox="0 0 31 31" fill="none" xmlns="http://www.w3.org/2000/svg">
<path d="M3 28H28" stroke="white" stroke-width="1.875" stroke-miterlimit="10" stroke-linecap="round" stroke-linejoin="round"/>
<path d="M4.1875 28.0006L4.25 12.963C4.25 12.2005 4.6125 11.4756 5.2125 11.0006L13.9625 4.18809C14.8625 3.48809 16.125 3.48809 17.0375 4.18809L25.7875 10.9881C26.4 11.4631 26.75 12.188 26.75 12.963V28.0006" stroke="white" stroke-width="1.875" stroke-miterlimit="10" stroke-linejoin="round"/>
<path d="M16.75 21.75H14.25C13.2125 21.75 12.375 22.5875 12.375 23.625V28H18.625V23.625C18.625 22.5875 17.7875 21.75 16.75 21.75Z" stroke="white" stroke-width="1.875" stroke-miterlimit="10" stroke-linejoin="round"/>
<path d="M12.375 17.6875H9.875C9.1875 17.6875 8.625 17.125 8.625 16.4375V14.5625C8.625 13.875 9.1875 13.3125 9.875 13.3125H12.375C13.0625 13.3125 13.625 13.875 13.625 14.5625V16.4375C13.625 17.125 13.0625 17.6875 12.375 17.6875Z" stroke="white" stroke-width="1.875" stroke-miterlimit="10" stroke-linejoin="round"/>
<path d="M21.125 17.6875H18.625C17.9375 17.6875 17.375 17.125 17.375 16.4375V14.5625C17.375 13.875 17.9375 13.3125 18.625 13.3125H21.125C21.8125 13.3125 22.375 13.875 22.375 14.5625V16.4375C22.375 17.125 21.8125 17.6875 21.125 17.6875Z" stroke="white" stroke-width="1.875" stroke-miterlimit="10" stroke-linejoin="round"/>
<path d="M24.2501 9.25L24.2126 5.5H18.7126" stroke="white" stroke-width="1.875" stroke-miterlimit="10" stroke-linecap="round" stroke-linejoin="round"/>
</svg>
