<svg width="20" height="20" viewBox="0 0 20 20" fill="none" xmlns="http://www.w3.org/2000/svg">
<path d="M8.33337 13.3346C8.33337 11.9513 8.33337 10.8346 10.8334 10.8346H14.1667C16.6667 10.8346 16.6667 10.0013 16.6667 8.33464V6.66797C16.6667 5.0013 16.6667 4.16797 14.1667 4.16797H13.3334" stroke="#F4F5F8" stroke-width="1.25" stroke-linecap="round" stroke-linejoin="round"/>
<path d="M9.99996 1.66797H6.66663C6.12496 3.29297 6.12496 5.04297 6.66663 6.66797H9.99996C10.5416 5.04297 10.5416 3.29297 9.99996 1.66797Z" stroke="#F4F5F8" stroke-width="1.25" stroke-linecap="round" stroke-linejoin="round"/>
<path d="M6.66671 1.66797H5.83337C4.16671 1.66797 3.33337 2.5013 3.33337 4.16797C3.33337 5.83464 4.16671 6.66797 5.83337 6.66797H6.66671C5.83337 5.0013 5.83337 3.33464 6.66671 1.66797Z" stroke="#F4F5F8" stroke-width="1.25" stroke-linecap="round" stroke-linejoin="round"/>
<path d="M10.8333 1.66797H10C10.8333 3.33464 10.8333 5.0013 10 6.66797H10.8333C12.5 6.66797 13.3333 5.83464 13.3333 4.16797C13.3333 2.5013 12.5 1.66797 10.8333 1.66797Z" stroke="#F4F5F8" stroke-width="1.25" stroke-linecap="round" stroke-linejoin="round"/>
<path d="M7.91663 18.3345H8.74996C9.99996 18.3345 9.99996 17.5011 9.99996 17.0845V14.5845C9.99996 14.1678 9.99996 13.3345 8.74996 13.3345H7.91663C6.66663 13.3345 6.66663 14.1678 6.66663 14.5845V17.0845C6.66663 17.5011 6.66663 18.3345 7.91663 18.3345Z" stroke="#F4F5F8" stroke-width="1.25" stroke-linecap="round" stroke-linejoin="round"/>
</svg>
