<svg width="20" height="20" viewBox="0 0 20 20" fill="none" xmlns="http://www.w3.org/2000/svg">
<path d="M7.49996 18.3346H12.5C16.6666 18.3346 18.3333 16.668 18.3333 12.5013V7.5013C18.3333 3.33464 16.6666 1.66797 12.5 1.66797H7.49996C3.33329 1.66797 1.66663 3.33464 1.66663 7.5013V12.5013C1.66663 16.668 3.33329 18.3346 7.49996 18.3346Z" stroke="#F4F5F8" stroke-width="1.25" stroke-linecap="round" stroke-linejoin="round"/>
<path d="M12.975 15.418V12.168" stroke="#F4F5F8" stroke-width="1.25" stroke-miterlimit="10" stroke-linecap="round" stroke-linejoin="round"/>
<path d="M12.975 6.20947V4.58447" stroke="#F4F5F8" stroke-width="1.25" stroke-miterlimit="10" stroke-linecap="round" stroke-linejoin="round"/>
<path d="M12.975 10.5428C14.1716 10.5428 15.1417 9.57276 15.1417 8.37614C15.1417 7.17952 14.1716 6.20947 12.975 6.20947C11.7784 6.20947 10.8083 7.17952 10.8083 8.37614C10.8083 9.57276 11.7784 10.5428 12.975 10.5428Z" stroke="#F4F5F8" stroke-width="1.25" stroke-miterlimit="10" stroke-linecap="round" stroke-linejoin="round"/>
<path d="M7.02502 15.418V13.793" stroke="#F4F5F8" stroke-width="1.25" stroke-miterlimit="10" stroke-linecap="round" stroke-linejoin="round"/>
<path d="M7.02502 7.83447V4.58447" stroke="#F4F5F8" stroke-width="1.25" stroke-miterlimit="10" stroke-linecap="round" stroke-linejoin="round"/>
<path d="M7.02494 13.793C8.22156 13.793 9.19161 12.823 9.19161 11.6264C9.19161 10.4298 8.22156 9.45972 7.02494 9.45972C5.82833 9.45972 4.85828 10.4298 4.85828 11.6264C4.85828 12.823 5.82833 13.793 7.02494 13.793Z" stroke="#F4F5F8" stroke-width="1.25" stroke-miterlimit="10" stroke-linecap="round" stroke-linejoin="round"/>
</svg>
