<svg width="20" height="20" viewBox="0 0 20 20" fill="none" xmlns="http://www.w3.org/2000/svg">
<path d="M11.1917 12.5012H3.66666C2.15 12.5012 1.18333 10.8762 1.91666 9.54286L3.85833 6.00951L5.675 2.70117C6.43333 1.32617 8.41666 1.32617 9.17499 2.70117L11 6.00951L11.875 7.60118L12.9417 9.54286C13.675 10.8762 12.7083 12.5012 11.1917 12.5012Z" stroke="#F4F5F8" stroke-width="1.25" stroke-linecap="round" stroke-linejoin="round"/>
<path d="M18.3333 12.9176C18.3333 15.9093 15.9083 18.3343 12.9167 18.3343C9.925 18.3343 7.5 15.9093 7.5 12.9176C7.5 12.776 7.50833 12.6426 7.51667 12.501H11.1917C12.7083 12.501 13.675 10.876 12.9417 9.54265L11.875 7.60097C12.2083 7.53431 12.5583 7.50098 12.9167 7.50098C15.9083 7.50098 18.3333 9.92598 18.3333 12.9176Z" stroke="#F4F5F8" stroke-width="1.25" stroke-linecap="round" stroke-linejoin="round"/>
</svg>
