<svg width="20" height="20" viewBox="0 0 20 20" fill="none" xmlns="http://www.w3.org/2000/svg">
<path d="M16.1001 8.33412H3.90839C2.67506 8.33412 1.67505 7.32579 1.67505 6.10079V3.90912C1.67505 2.67579 2.68339 1.67578 3.90839 1.67578H16.1001C17.3334 1.67578 18.3334 2.68412 18.3334 3.90912V6.10079C18.3334 7.32579 17.3251 8.33412 16.1001 8.33412Z" stroke="#F4F5F8" stroke-width="1.25" stroke-linecap="round" stroke-linejoin="round"/>
<path d="M16.1001 18.3341H3.90839C2.67506 18.3341 1.67505 17.3258 1.67505 16.1008V13.9091C1.67505 12.6758 2.68339 11.6758 3.90839 11.6758H16.1001C17.3334 11.6758 18.3334 12.6841 18.3334 13.9091V16.1008C18.3334 17.3258 17.3251 18.3341 16.1001 18.3341Z" stroke="#F4F5F8" stroke-width="1.25" stroke-linecap="round" stroke-linejoin="round"/>
<path d="M5 4.16748V5.83415" stroke="#F4F5F8" stroke-width="1.25" stroke-linecap="round" stroke-linejoin="round"/>
<path d="M8.33337 4.16748V5.83415" stroke="#F4F5F8" stroke-width="1.25" stroke-linecap="round" stroke-linejoin="round"/>
<path d="M5 14.1675V15.8341" stroke="#F4F5F8" stroke-width="1.25" stroke-linecap="round" stroke-linejoin="round"/>
<path d="M8.33337 14.1675V15.8341" stroke="#F4F5F8" stroke-width="1.25" stroke-linecap="round" stroke-linejoin="round"/>
<path d="M11.6666 5.00098H15" stroke="#F4F5F8" stroke-width="1.25" stroke-linecap="round" stroke-linejoin="round"/>
<path d="M11.6666 15.001H15" stroke="#F4F5F8" stroke-width="1.25" stroke-linecap="round" stroke-linejoin="round"/>
</svg>
