<svg width="20" height="20" viewBox="0 0 20 20" fill="none" xmlns="http://www.w3.org/2000/svg">
<path d="M2.91658 17.0845C3.60824 17.7762 4.72491 17.7762 5.41658 17.0845L16.2499 6.25117C16.9416 5.55951 16.9416 4.44284 16.2499 3.75117C15.5582 3.05951 14.4416 3.05951 13.7499 3.75117L2.91658 14.5845C2.22491 15.2762 2.22491 16.3928 2.91658 17.0845Z" stroke="#F4F5F8" stroke-width="1.25" stroke-linecap="round" stroke-linejoin="round"/>
<path d="M15.0083 7.49292L12.5083 4.99292" stroke="#F4F5F8" stroke-width="1.25" stroke-linecap="round" stroke-linejoin="round"/>
<path d="M7.08337 2.03464L8.33337 1.66797L7.96671 2.91797L8.33337 4.16797L7.08337 3.8013L5.83337 4.16797L6.20004 2.91797L5.83337 1.66797L7.08337 2.03464Z" stroke="#F4F5F8" stroke-width="1.25" stroke-linecap="round" stroke-linejoin="round"/>
<path d="M3.75 7.03464L5 6.66797L4.63333 7.91797L5 9.16797L3.75 8.8013L2.5 9.16797L2.86667 7.91797L2.5 6.66797L3.75 7.03464Z" stroke="#F4F5F8" stroke-width="1.25" stroke-linecap="round" stroke-linejoin="round"/>
<path d="M16.25 11.2011L17.5 10.8345L17.1333 12.0845L17.5 13.3345L16.25 12.9678L15 13.3345L15.3667 12.0845L15 10.8345L16.25 11.2011Z" stroke="#F4F5F8" stroke-width="1.25" stroke-linecap="round" stroke-linejoin="round"/>
</svg>
