<svg width="20" height="20" viewBox="0 0 20 20" fill="none" xmlns="http://www.w3.org/2000/svg">
<path d="M5.30835 7.92628C1.90835 8.16795 1.91668 13.0929 5.30835 13.3346H13.3584C14.3334 13.3429 15.275 12.9763 16 12.318C18.3834 10.2346 17.1084 6.06793 13.9667 5.66793C12.8417 -1.1154 3.01669 1.45962 5.34169 7.92628" stroke="#F4F5F8" stroke-width="1.25" stroke-miterlimit="10" stroke-linecap="round" stroke-linejoin="round"/>
<path d="M10 13.3345V15.8345" stroke="#F4F5F8" stroke-width="1.25" stroke-miterlimit="10" stroke-linecap="round" stroke-linejoin="round"/>
<path d="M9.99992 19.1678C10.9204 19.1678 11.6666 18.4216 11.6666 17.5011C11.6666 16.5807 10.9204 15.8345 9.99992 15.8345C9.07944 15.8345 8.33325 16.5807 8.33325 17.5011C8.33325 18.4216 9.07944 19.1678 9.99992 19.1678Z" stroke="#F4F5F8" stroke-width="1.25" stroke-miterlimit="10" stroke-linecap="round" stroke-linejoin="round"/>
<path d="M15.0001 17.501H11.6667" stroke="#F4F5F8" stroke-width="1.25" stroke-miterlimit="10" stroke-linecap="round" stroke-linejoin="round"/>
<path d="M8.33333 17.501H5" stroke="#F4F5F8" stroke-width="1.25" stroke-miterlimit="10" stroke-linecap="round" stroke-linejoin="round"/>
</svg>
