<svg width="20" height="20" viewBox="0 0 20 20" fill="none" xmlns="http://www.w3.org/2000/svg">
<path d="M4.50004 1.75098H15.5C16.4167 1.75098 17.1667 2.50098 17.1667 3.41764V5.25098C17.1667 5.91764 16.75 6.75098 16.3334 7.16764L12.75 10.3343C12.25 10.751 11.9167 11.5843 11.9167 12.251V15.8343C11.9167 16.3343 11.5834 17.001 11.1667 17.251L10 18.001C8.91671 18.6676 7.41671 17.9176 7.41671 16.5843V12.1676C7.41671 11.5843 7.08337 10.8343 6.75004 10.4176L3.58337 7.08431C3.16671 6.66764 2.83337 5.91764 2.83337 5.41764V3.50098C2.83337 2.50098 3.58337 1.75098 4.50004 1.75098Z" stroke="white" stroke-width="1.25" stroke-miterlimit="10" stroke-linecap="round" stroke-linejoin="round"/>
<path d="M9.10833 1.75098L5 8.33431" stroke="white" stroke-width="1.25" stroke-miterlimit="10" stroke-linecap="round" stroke-linejoin="round"/>
</svg>
