<svg width="20" height="20" viewBox="0 0 20 20" fill="none" xmlns="http://www.w3.org/2000/svg">
<path d="M7.49996 18.3341H12.5C16.6666 18.3341 18.3333 16.6675 18.3333 12.5008V7.50081C18.3333 3.33415 16.6666 1.66748 12.5 1.66748H7.49996C3.33329 1.66748 1.66663 3.33415 1.66663 7.50081V12.5008C1.66663 16.6675 3.33329 18.3341 7.49996 18.3341Z" stroke="white" stroke-width="1.25" stroke-linecap="round" stroke-linejoin="round"/>
<path d="M8.33337 14.1678H11.6667C13.0417 14.1678 14.1667 13.0428 14.1667 11.6678V8.33447C14.1667 6.95947 13.0417 5.83447 11.6667 5.83447H8.33337C6.95837 5.83447 5.83337 6.95947 5.83337 8.33447V11.6678C5.83337 13.0428 6.95837 14.1678 8.33337 14.1678Z" stroke="white" stroke-width="1.25" stroke-linecap="round" stroke-linejoin="round"/>
<path d="M10 5.83447V14.1678" stroke="white" stroke-width="1.25" stroke-linecap="round" stroke-linejoin="round"/>
<path d="M5.83337 10.001H14.1667" stroke="white" stroke-width="1.25" stroke-linecap="round" stroke-linejoin="round"/>
</svg>
