<svg width="20" height="20" viewBox="0 0 20 20" fill="none" xmlns="http://www.w3.org/2000/svg">
<path d="M16.6667 8.00114C16.6667 4.66781 15.3334 3.33447 12 3.33447H8.00004C4.66671 3.33447 3.33337 4.66781 3.33337 8.00114V12.0011C3.33337 15.3345 4.66671 16.6678 8.00004 16.6678" stroke="#F4F5F8" stroke-width="1.25" stroke-linecap="round" stroke-linejoin="round"/>
<path d="M13.625 6.66781C13.1667 6.08447 12.4 5.83447 11.25 5.83447H8.75004C6.66671 5.83447 5.83337 6.66781 5.83337 8.75114V11.2511C5.83337 12.4011 6.08337 13.1678 6.65837 13.6261" stroke="#F4F5F8" stroke-width="1.25" stroke-linecap="round" stroke-linejoin="round"/>
<path d="M6.67505 3.33415V1.66748" stroke="#F4F5F8" stroke-width="1.25" stroke-linecap="round" stroke-linejoin="round"/>
<path d="M10 3.33415V1.66748" stroke="#F4F5F8" stroke-width="1.25" stroke-linecap="round" stroke-linejoin="round"/>
<path d="M13.3334 3.33415V1.66748" stroke="#F4F5F8" stroke-width="1.25" stroke-linecap="round" stroke-linejoin="round"/>
<path d="M16.6666 6.66748H18.3333" stroke="#F4F5F8" stroke-width="1.25" stroke-linecap="round" stroke-linejoin="round"/>
<path d="M6.67505 16.6675V18.3341" stroke="#F4F5F8" stroke-width="1.25" stroke-linecap="round" stroke-linejoin="round"/>
<path d="M1.66663 6.66748H3.33329" stroke="#F4F5F8" stroke-width="1.25" stroke-linecap="round" stroke-linejoin="round"/>
<path d="M1.66663 10.001H3.33329" stroke="#F4F5F8" stroke-width="1.25" stroke-linecap="round" stroke-linejoin="round"/>
<path d="M1.66663 13.3345H3.33329" stroke="#F4F5F8" stroke-width="1.25" stroke-linecap="round" stroke-linejoin="round"/>
<path d="M13.925 15.4928C14.6568 15.4928 15.25 14.8996 15.25 14.1678C15.25 13.436 14.6568 12.8428 13.925 12.8428C13.1932 12.8428 12.6 13.436 12.6 14.1678C12.6 14.8996 13.1932 15.4928 13.925 15.4928Z" stroke="#F4F5F8" stroke-width="1.25" stroke-miterlimit="10" stroke-linecap="round" stroke-linejoin="round"/>
<path d="M9.5083 14.5512V13.7762C9.5083 13.3179 9.8833 12.9429 10.3416 12.9429C11.1416 12.9429 11.4666 12.3762 11.0666 11.6846C10.8333 11.2846 10.975 10.7679 11.375 10.5429L12.1333 10.1012C12.4833 9.89291 12.9333 10.0179 13.1416 10.3679L13.1916 10.4512C13.5916 11.1429 14.2416 11.1429 14.6416 10.4512L14.6916 10.3679C14.9 10.0179 15.35 9.90124 15.7 10.1012L16.4583 10.5429C16.8583 10.7762 17 11.2846 16.7666 11.6846C16.3666 12.3762 16.6916 12.9429 17.4916 12.9429C17.95 12.9429 18.325 13.3179 18.325 13.7762V14.5512C18.325 15.0096 17.95 15.3846 17.4916 15.3846C16.6916 15.3846 16.3666 15.9512 16.7666 16.6429C17 17.0429 16.8583 17.5596 16.4583 17.7846L15.7 18.2262C15.35 18.4346 14.9 18.3096 14.6916 17.9596L14.6416 17.8762C14.2416 17.1846 13.5916 17.1846 13.1916 17.8762L13.1416 17.9596C12.9333 18.3096 12.4833 18.4262 12.1333 18.2262L11.375 17.7846C10.975 17.5512 10.8333 17.0429 11.0666 16.6429C11.4666 15.9512 11.1416 15.3846 10.3416 15.3846C9.8833 15.3929 9.5083 15.0179 9.5083 14.5512Z" stroke="#F4F5F8" stroke-width="1.25" stroke-miterlimit="10" stroke-linecap="round" stroke-linejoin="round"/>
</svg>
