<?xml version="1.0" encoding="UTF-8"?>
<svg id="Layer_1" xmlns="http://www.w3.org/2000/svg" version="1.1" viewBox="0 0 1400 381.2">
  <!-- Generator: Adobe Illustrator 29.0.1, SVG Export Plug-In . SVG Version: 2.1.0 Build 192)  -->
  <defs>
    <style>
      .st0 {
        fill: #fff;
      }
    </style>
  </defs>
  <path class="st0" d="M109.1,134.5v-43.4c0-11.6-3.9-17.5-11.6-17.5s-12.2,5.8-12.2,17.5v27.5c0,4.6.3,8.6,1.1,11.9.7,3.4,2.6,6.6,5.6,9.8,3,3.2,7.4,6.6,13.2,10.3s13.9,8.2,24.1,13.5l15.9,7.4c9.5,4.9,17.5,10.3,23.8,16.1,6.4,5.8,11.4,12.7,15.1,20.7,3.7,7.9,6.4,17.4,7.9,28.3,1.6,10.9,2.4,24,2.4,39.2v7.4c0,31.4-8.6,55.6-25.7,72.5-17.1,16.9-41.4,25.4-72.8,25.4s-54.8-8.3-71.2-24.9C8.2,339.8,0,315.4,0,283.3v-36.5h84.7v42.9c0,12,4.2,18,12.7,18s12.2-5.8,12.2-17.5v-28.6c0-4.9-.4-9-1.1-12.2-.7-3.2-2.5-6.3-5.3-9.3-2.8-3-6.9-6.2-12.2-9.5-5.3-3.4-12.7-7.5-22.2-12.4l-18.5-9c-9.5-4.9-17.5-10.4-23.8-16.4-6.4-6-11.5-13.2-15.4-21.7-3.9-8.5-6.6-18.3-8.2-29.4-1.6-11.1-2.4-24.1-2.4-38.9v-5.3C.5,65.3,8.6,41,24.9,24.6,41.1,8.2,64.8,0,95.8,0s55.2,8.5,72.3,25.4c17.1,16.9,25.7,41,25.7,72v37.1h-84.7Z"/>
  <path class="st0" d="M291.2,78.9v65.7h50.8v73.6h-50.8v84.2h52.4v73.6h-137.1V5.3h136.6v73.6h-51.9Z"/>
  <path class="st0" d="M449,4.8c31.1,0,55.1,8.2,72,24.6,16.9,16.4,25.4,41.4,25.4,74.9v2.1c0,15.2-1.7,28.5-5,40-3.4,11.5-7.7,21-13,28.6-5.3,7.6-11.1,13.4-17.5,17.5-6.4,4.1-12.5,6.3-18.5,6.6v5.8c6,.4,12.2,2.7,18.5,7.1,6.4,4.4,12.2,10.5,17.5,18.3,5.3,7.8,9.6,17.2,13,28.3,3.4,11.1,5,23.6,5,37.3v4.2c0,15.2.3,28.8.8,40.8.5,12,2,23.7,4.5,34.9h-84.2c-2.5-11.3-4-23.2-4.5-35.7-.5-12.5-.8-26-.8-40.5v-42.9c0-6.7-1.1-11.4-3.2-14-2.1-2.6-5.8-4-11.1-4h-9v137.1h-84.7V4.8h94.8ZM439,165.2h9c5.3,0,9-1.4,11.1-4.2,2.1-2.8,3.2-7.6,3.2-14.3v-50.3c0-6.4-1.1-10.9-3.2-13.8-2.1-2.8-5.8-4.2-11.1-4.2h-9v86.8Z"/>
  <path class="st0" d="M634.9,5.3l10.6,276.9h5.8l11.1-276.9h84.7l-33.4,370.7h-131.8L550.1,5.3h84.7Z"/>
  <path class="st0" d="M840.3,5.3v370.7h-84.7V5.3h84.7Z"/>
  <path class="st0" d="M936.7,290.2c0,6.4,1.2,10.9,3.7,13.5,2.5,2.6,5.5,4,9,4s6-1.3,8.5-4c2.5-2.6,3.7-7.1,3.7-13.5v-89.5h84.7v83.1c0,32.1-8.7,56.4-26.2,72.8-17.5,16.4-41.6,24.6-72.3,24.6s-53.9-8.1-70.7-24.4c-16.8-16.2-25.2-40.6-25.2-73.1V97.4c0-32.5,8.4-56.7,25.2-72.8,16.8-16.1,40.3-24.1,70.7-24.1s54.8,8.2,72.3,24.6c17.5,16.4,26.2,40.5,26.2,72.3v83.7h-84.7v-89.5c0-6.7-1.2-11.4-3.7-14-2.5-2.6-5.3-4-8.5-4s-6.5,1.3-9,4c-2.5,2.6-3.7,7.3-3.7,14v198.6Z"/>
  <path class="st0" d="M1143.2,78.9v65.7h50.8v73.6h-50.8v84.2h52.4v73.6h-137.1V5.3h136.6v73.6h-51.9Z"/>
  <path class="st0" d="M1314.7,134.5v-43.4c0-11.6-3.9-17.5-11.6-17.5s-12.2,5.8-12.2,17.5v27.5c0,4.6.3,8.6,1.1,11.9.7,3.4,2.6,6.6,5.6,9.8,3,3.2,7.4,6.6,13.2,10.3,5.8,3.7,13.9,8.2,24.1,13.5l15.9,7.4c9.5,4.9,17.5,10.3,23.8,16.1,6.4,5.8,11.4,12.7,15.1,20.7,3.7,7.9,6.4,17.4,7.9,28.3,1.6,10.9,2.4,24,2.4,39.2v7.4c0,31.4-8.6,55.6-25.7,72.5-17.1,16.9-41.4,25.4-72.8,25.4s-54.8-8.3-71.2-24.9c-16.4-16.6-24.6-40.9-24.6-73.1v-36.5h84.7v42.9c0,12,4.2,18,12.7,18s12.2-5.8,12.2-17.5v-28.6c0-4.9-.4-9-1.1-12.2-.7-3.2-2.5-6.3-5.3-9.3-2.8-3-6.9-6.2-12.2-9.5-5.3-3.4-12.7-7.5-22.2-12.4l-18.5-9c-9.5-4.9-17.5-10.4-23.8-16.4-6.4-6-11.5-13.2-15.4-21.7-3.9-8.5-6.6-18.3-8.2-29.4-1.6-11.1-2.4-24.1-2.4-38.9v-5.3c0-32.1,8.1-56.4,24.4-72.8,16.2-16.4,39.9-24.6,71-24.6s55.2,8.5,72.3,25.4c17.1,16.9,25.7,41,25.7,72v37.1h-84.7Z"/>
</svg>