<svg width="284" height="284" viewBox="0 0 284 284" fill="none" xmlns="http://www.w3.org/2000/svg">
<mask id="path-1-inside-1_2014_317" fill="white">
<path d="M142 284C179.661 284 215.779 269.039 242.409 242.409C269.039 215.779 284 179.661 284 142C284 104.339 269.039 68.221 242.409 41.5909C215.779 14.9607 179.661 1.52573e-05 142 1.2414e-05L142 142L142 284Z"/>
</mask>
<path d="M142 284C179.661 284 215.779 269.039 242.409 242.409C269.039 215.779 284 179.661 284 142C284 104.339 269.039 68.221 242.409 41.5909C215.779 14.9607 179.661 1.52573e-05 142 1.2414e-05L142 142L142 284Z" stroke="#F4F5F8" stroke-opacity="0.9" stroke-width="2" mask="url(#path-1-inside-1_2014_317)"/>
<path d="M142 284C104.339 284 68.221 269.039 41.5908 242.409C14.9607 215.779 -1.04765e-06 179.661 0 142C1.04765e-06 104.339 14.9607 68.221 41.5908 41.5908C68.221 14.9607 104.339 -4.491e-07 142 0L142 142L142 284Z" fill="#F4F5F8" fill-opacity="0.9"/>
</svg>
